<svg width="149" height="18" viewBox="0 0 149 18" fill="none" xmlns="http://www.w3.org/2000/svg">
<g clip-path="url(#clip0_1135_790)">
<g filter="url(#filter0_d_1135_790)">
<path d="M15.0859 9.29297C15.0859 10.8789 14.7383 12.3164 14.043 13.6055C13.3555 14.8945 12.4375 15.8945 11.2891 16.6055C10.4922 17.0977 9.60156 17.4531 8.61719 17.6719C7.64062 17.8906 6.35156 18 4.75 18H0.34375V0.550781H4.70312C6.40625 0.550781 7.75781 0.675781 8.75781 0.925781C9.76562 1.16797 10.6172 1.50391 11.3125 1.93359C12.5 2.67578 13.4258 3.66406 14.0898 4.89844C14.7539 6.13281 15.0859 7.59766 15.0859 9.29297ZM12.6602 9.25781C12.6602 7.89062 12.4219 6.73828 11.9453 5.80078C11.4688 4.86328 10.7578 4.125 9.8125 3.58594C9.125 3.19531 8.39453 2.92578 7.62109 2.77734C6.84766 2.62109 5.92188 2.54297 4.84375 2.54297H2.66406V16.0078H4.84375C5.96094 16.0078 6.93359 15.9258 7.76172 15.7617C8.59766 15.5977 9.36328 15.293 10.0586 14.8477C10.9258 14.293 11.5742 13.5625 12.0039 12.6562C12.4414 11.75 12.6602 10.6172 12.6602 9.25781ZM24.9883 18H18.0977V16.2188H20.3828V2.33203H18.0977V0.550781H24.9883V2.33203H22.7031V16.2188H24.9883V18ZM41.2891 0.550781L35.1484 10.3477V18H32.8281V10.5938L26.6641 0.550781H29.2305L34 8.35547L38.8164 0.550781H41.2891ZM56.5234 18H54.0508L52.3398 13.1367H44.793L43.082 18H40.7266L47.0781 0.550781H50.1719L56.5234 18ZM51.625 11.1445L48.5664 2.57812L45.4961 11.1445H51.625Z" fill="white"/>
<path d="M73.9141 9.29297C73.9141 10.8789 73.5664 12.3164 72.8711 13.6055C72.1836 14.8945 71.2656 15.8945 70.1172 16.6055C69.3203 17.0977 68.4297 17.4531 67.4453 17.6719C66.4688 17.8906 65.1797 18 63.5781 18H59.1719V0.550781H63.5312C65.2344 0.550781 66.5859 0.675781 67.5859 0.925781C68.5938 1.16797 69.4453 1.50391 70.1406 1.93359C71.3281 2.67578 72.2539 3.66406 72.918 4.89844C73.582 6.13281 73.9141 7.59766 73.9141 9.29297ZM71.4883 9.25781C71.4883 7.89062 71.25 6.73828 70.7734 5.80078C70.2969 4.86328 69.5859 4.125 68.6406 3.58594C67.9531 3.19531 67.2227 2.92578 66.4492 2.77734C65.6758 2.62109 64.75 2.54297 63.6719 2.54297H61.4922V16.0078H63.6719C64.7891 16.0078 65.7617 15.9258 66.5898 15.7617C67.4258 15.5977 68.1914 15.293 68.8867 14.8477C69.7539 14.293 70.4023 13.5625 70.832 12.6562C71.2695 11.75 71.4883 10.6172 71.4883 9.25781ZM91.4219 18H88.9492L87.2383 13.1367H79.6914L77.9805 18H75.625L81.9766 0.550781H85.0703L91.4219 18ZM86.5234 11.1445L83.4648 2.57812L80.3945 11.1445H86.5234ZM107.383 18H104.512L96.2383 2.39062V18H94.0703V0.550781H97.668L105.215 14.8008V0.550781H107.383V18ZM118.176 18H111.285V16.2188H113.57V2.33203H111.285V0.550781H118.176V2.33203H115.891V16.2188H118.176V18ZM133.621 18H122.125V0.550781H133.621V2.61328H124.445V7.39453H133.621V9.45703H124.445V15.9375H133.621V18ZM148.352 18H137.312V0.550781H139.633V15.9375H148.352V18Z" fill="#006A9E"/>
</g>
</g>
<defs>
<filter id="filter0_d_1135_790" x="-0.65625" y="-0.449219" width="150.008" height="19.4492" filterUnits="userSpaceOnUse" color-interpolation-filters="sRGB">
<feFlood flood-opacity="0" result="BackgroundImageFix"/>
<feColorMatrix in="SourceAlpha" type="matrix" values="0 0 0 0 0 0 0 0 0 0 0 0 0 0 0 0 0 0 127 0" result="hardAlpha"/>
<feOffset/>
<feGaussianBlur stdDeviation="0.5"/>
<feComposite in2="hardAlpha" operator="out"/>
<feColorMatrix type="matrix" values="0 0 0 0 0 0 0 0 0 0 0 0 0 0 0 0 0 0 1 0"/>
<feBlend mode="normal" in2="BackgroundImageFix" result="effect1_dropShadow_1135_790"/>
<feBlend mode="normal" in="SourceGraphic" in2="effect1_dropShadow_1135_790" result="shape"/>
</filter>
<clipPath id="clip0_1135_790">
<rect width="149" height="18" fill="white"/>
</clipPath>
</defs>
</svg>
