<svg width="40" height="40" viewBox="0 0 40 40" fill="none" xmlns="http://www.w3.org/2000/svg">
<circle cx="20" cy="20" r="20" fill="#374B55"/>
<path fill-rule="evenodd" clip-rule="evenodd" d="M9.66394 14H29.9253L19.7819 20.3992L9.66394 14ZM30.2787 14.224V26.1263H9.31055V24.9894C11.194 24.9894 12.721 23.4623 12.721 21.5789C12.721 19.6954 11.194 18.1684 9.31055 18.1684V14.2233L19.6814 20.7825L19.6812 20.7829C19.7496 20.826 19.8348 20.8201 19.896 20.7746L30.279 14.2235L30.2787 14.224Z" fill="#D4D4D4"/>
<path fill-rule="evenodd" clip-rule="evenodd" d="M9.31088 18.5474C10.9852 18.5474 12.3425 19.9046 12.3425 21.5789C12.3425 23.2533 10.9852 24.6105 9.31088 24.6105C7.63652 24.6105 6.2793 23.2533 6.2793 21.5789C6.2793 19.9046 7.63652 18.5474 9.31088 18.5474ZM10.6888 22.5166H11.0793C10.9573 22.7652 10.7696 22.9592 10.5167 23.0999C10.2269 23.2614 9.87316 23.3422 9.4566 23.3422C9.05351 23.3422 8.705 23.2741 8.41131 23.1376C8.1183 23.0011 7.89995 22.8002 7.75672 22.5342C7.61393 22.2683 7.54266 21.9791 7.54266 21.666C7.54266 21.3225 7.62409 21.0027 7.78604 20.706C7.94867 20.4101 8.17153 20.1872 8.45391 20.0388C8.73609 19.8904 9.05907 19.8159 9.42228 19.8159C9.73018 19.8159 10.0038 19.8759 10.2436 19.9955C10.4834 20.115 10.6661 20.2853 10.7931 20.5062C10.9196 20.7266 10.9828 20.9681 10.9828 21.2298C10.9828 21.5415 10.8864 21.823 10.6949 22.0747C10.454 22.3928 10.1455 22.5516 9.76854 22.5516C9.66704 22.5516 9.5908 22.534 9.53937 22.4984C9.48793 22.4627 9.45365 22.4108 9.43674 22.3425C9.29283 22.4821 9.12636 22.5516 8.93802 22.5516C8.73524 22.5516 8.56696 22.4814 8.43298 22.3418C8.29899 22.2017 8.232 22.0157 8.232 21.7829C8.232 21.4955 8.31275 21.2341 8.47425 20.9968C8.67027 20.7083 8.92042 20.5637 9.22586 20.5637C9.44375 20.5637 9.60458 20.6469 9.70834 20.8134L9.75413 20.6093H10.238L9.96142 21.9243C9.9445 22.0075 9.93571 22.0614 9.93571 22.0858C9.93571 22.1165 9.9427 22.139 9.95691 22.1546C9.97067 22.1697 9.98759 22.1771 10.007 22.1771C10.0659 22.1771 10.1416 22.1422 10.2348 22.0707C10.3593 21.978 10.4601 21.8535 10.5371 21.6969C10.614 21.5404 10.6523 21.3784 10.6523 21.2106C10.6523 20.9101 10.5441 20.6586 10.3262 20.4563C10.1083 20.2542 9.80488 20.1527 9.4149 20.1527C9.08377 20.1527 8.80269 20.2204 8.5724 20.3555C8.3421 20.4906 8.16797 20.6803 8.05158 20.9257C7.93451 21.1705 7.87631 21.4258 7.87631 21.6911C7.87631 21.9489 7.9415 22.1837 8.07165 22.3953C8.2018 22.6069 8.38451 22.7607 8.62 22.8584C8.85526 22.9553 9.12459 23.0043 9.4275 23.0043C9.71983 23.0043 9.97133 22.9637 10.1818 22.8823C10.3915 22.8008 10.5609 22.6788 10.6893 22.5162L10.6888 22.5166ZM8.70658 21.763C8.70658 21.9182 8.73794 22.0328 8.80109 22.1061C8.86425 22.1794 8.94185 22.2161 9.03455 22.2161C9.1047 22.2161 9.16967 22.1992 9.23102 22.1649C9.27726 22.1406 9.32305 22.1018 9.36861 22.0492C9.43312 21.9748 9.48952 21.8658 9.53643 21.7231C9.58335 21.5798 9.60726 21.4465 9.60726 21.3231C9.60726 21.1849 9.57478 21.0791 9.51094 21.0051C9.44643 20.9313 9.36568 20.8943 9.26801 20.8943C9.1629 20.8943 9.06523 20.9349 8.97635 21.0157C8.8868 21.0971 8.81981 21.2128 8.77425 21.3637C8.72914 21.514 8.70658 21.6473 8.70658 21.763Z" fill="#D4D4D4"/>
</svg>
