<svg width="499" height="289" viewBox="0 0 499 289" fill="none" xmlns="http://www.w3.org/2000/svg">
<g clip-path="url(#clip0_1149_2724)">
<rect width="499" height="289" rx="4" fill="white"/>
<g opacity="0.02">
<path fill-rule="evenodd" clip-rule="evenodd" d="M14.5138 182.896L20.9802 189.29L17.7895 192.517L14.5563 189.32C12.7708 187.554 12.7519 184.678 14.5139 182.896L14.5138 182.896Z" fill="#0666EB"/>
<path fill-rule="evenodd" clip-rule="evenodd" d="M14.5852 181.913L8.11886 175.519L11.3095 172.292L14.5427 175.489C16.3282 177.255 16.3472 180.131 14.5851 181.913L14.5852 181.913Z" fill="#0666EB"/>
<path fill-rule="evenodd" clip-rule="evenodd" d="M4.57366 185.657L10.9549 179.203L14.1881 182.4L10.9973 185.627C9.23523 187.409 6.35935 187.422 4.57366 185.657L4.57366 185.657Z" fill="#0666EB"/>
<path fill-rule="evenodd" clip-rule="evenodd" d="M24.5214 179.285L18.1401 185.738L14.9069 182.541L18.0977 179.314C19.8598 177.532 22.7357 177.519 24.5214 179.285L24.5214 179.285Z" fill="#0666EB"/>
<path fill-rule="evenodd" clip-rule="evenodd" d="M39.34 158.071L45.8064 164.466L42.6157 167.692L39.3825 164.495C37.597 162.729 37.578 159.853 39.3401 158.071L39.34 158.071Z" fill="#0666EB"/>
<path fill-rule="evenodd" clip-rule="evenodd" d="M39.4094 157.088L32.9431 150.694L36.1337 147.468L39.367 150.665C41.1524 152.431 41.1714 155.307 39.4094 157.088L39.4094 157.088Z" fill="#0666EB"/>
<path fill-rule="evenodd" clip-rule="evenodd" d="M29.3979 160.832L35.7791 154.379L39.0123 157.576L35.8215 160.803C34.0594 162.585 31.1836 162.598 29.3979 160.832L29.3979 160.832Z" fill="#0666EB"/>
<path fill-rule="evenodd" clip-rule="evenodd" d="M49.3456 154.46L42.9644 160.914L39.7312 157.717L42.922 154.49C44.684 152.708 47.5599 152.695 49.3456 154.46L49.3456 154.46Z" fill="#0666EB"/>
<path fill-rule="evenodd" clip-rule="evenodd" d="M64.1662 133.247L70.6325 139.641L67.4419 142.867L64.2087 139.67C62.4232 137.905 62.4042 135.029 64.1663 133.247L64.1662 133.247Z" fill="#0666EB"/>
<path fill-rule="evenodd" clip-rule="evenodd" d="M64.2356 132.264L57.7693 125.87L60.9599 122.643L64.1931 125.84C65.9786 127.606 65.9976 130.482 64.2355 132.264L64.2356 132.264Z" fill="#0666EB"/>
<path fill-rule="evenodd" clip-rule="evenodd" d="M54.224 136.008L60.6053 129.554L63.8385 132.751L60.6477 135.978C58.8856 137.76 56.0097 137.773 54.224 136.008L54.224 136.008Z" fill="#0666EB"/>
<path fill-rule="evenodd" clip-rule="evenodd" d="M74.1717 129.636L67.7905 136.089L64.5573 132.892L67.7481 129.665C69.5102 127.883 72.3861 127.87 74.1717 129.636L74.1717 129.636Z" fill="#0666EB"/>
<path fill-rule="evenodd" clip-rule="evenodd" d="M88.9904 108.422L95.4568 114.816L92.2661 118.043L89.0329 114.846C87.2474 113.08 87.2284 110.204 88.9905 108.422L88.9904 108.422Z" fill="#0666EB"/>
<path fill-rule="evenodd" clip-rule="evenodd" d="M89.0598 107.439L82.5935 101.045L85.7841 97.8183L89.0173 101.015C90.8028 102.781 90.8218 105.657 89.0598 107.439L89.0598 107.439Z" fill="#0666EB"/>
<path fill-rule="evenodd" clip-rule="evenodd" d="M79.0483 111.183L85.4295 104.729L88.6627 107.927L85.4719 111.153C83.7098 112.935 80.834 112.949 79.0483 111.183L79.0483 111.183Z" fill="#0666EB"/>
<path fill-rule="evenodd" clip-rule="evenodd" d="M98.996 104.811L92.6148 111.264L89.3815 108.067L92.5723 104.841C94.3344 103.059 97.2103 103.045 98.996 104.811L98.996 104.811Z" fill="#0666EB"/>
<path fill-rule="evenodd" clip-rule="evenodd" d="M113.815 83.5974L120.281 89.9916L117.09 93.2182L113.857 90.0211C112.072 88.2554 112.053 85.3793 113.815 83.5974L113.815 83.5974Z" fill="#0666EB"/>
<path fill-rule="evenodd" clip-rule="evenodd" d="M113.884 82.6145L107.418 76.2203L110.608 72.9936L113.842 76.1908C115.627 77.9565 115.646 80.8326 113.884 82.6145L113.884 82.6145Z" fill="#0666EB"/>
<path fill-rule="evenodd" clip-rule="evenodd" d="M103.872 86.3584L110.254 79.9048L113.487 83.1019L110.296 86.3287C108.534 88.1107 105.658 88.1239 103.872 86.3583L103.872 86.3584Z" fill="#0666EB"/>
<path fill-rule="evenodd" clip-rule="evenodd" d="M123.82 79.9863L117.439 86.4399L114.206 83.2428L117.397 80.0159C119.159 78.234 122.034 78.2208 123.82 79.9864L123.82 79.9863Z" fill="#0666EB"/>
<path fill-rule="evenodd" clip-rule="evenodd" d="M138.639 58.7728L145.105 65.1669L141.915 68.3936L138.681 65.1965C136.896 63.4308 136.877 60.5547 138.639 58.7728L138.639 58.7728Z" fill="#0666EB"/>
<path fill-rule="evenodd" clip-rule="evenodd" d="M138.708 57.7898L132.242 51.3957L135.433 48.169L138.666 51.3662C140.451 53.1319 140.47 56.008 138.708 57.7899L138.708 57.7898Z" fill="#0666EB"/>
<path fill-rule="evenodd" clip-rule="evenodd" d="M128.697 61.5337L135.078 55.0802L138.311 58.2773L135.12 61.5041C133.358 63.286 130.482 63.2993 128.697 61.5337L128.697 61.5337Z" fill="#0666EB"/>
<path fill-rule="evenodd" clip-rule="evenodd" d="M148.644 55.1617L142.263 61.6153L139.03 58.4181L142.221 55.1913C143.983 53.4094 146.859 53.3961 148.644 55.1618L148.644 55.1617Z" fill="#0666EB"/>
<path fill-rule="evenodd" clip-rule="evenodd" d="M47.6154 215.997L54.0818 222.391L50.8911 225.618L47.6579 222.421C45.8724 220.655 45.8534 217.779 47.6155 215.997L47.6154 215.997Z" fill="#0666EB"/>
<path fill-rule="evenodd" clip-rule="evenodd" d="M47.6848 215.014L41.2185 208.62L44.4091 205.393L47.6423 208.59C49.4278 210.356 49.4468 213.232 47.6848 215.014L47.6848 215.014Z" fill="#0666EB"/>
<path fill-rule="evenodd" clip-rule="evenodd" d="M37.6733 218.758L44.0545 212.304L47.2877 215.501L44.0969 218.728C42.3348 220.51 39.459 220.523 37.6733 218.758L37.6733 218.758Z" fill="#0666EB"/>
<path fill-rule="evenodd" clip-rule="evenodd" d="M57.621 212.386L51.2398 218.839L48.0065 215.642L51.1973 212.415C52.9594 210.633 55.8353 210.62 57.621 212.386L57.621 212.386Z" fill="#0666EB"/>
<path fill-rule="evenodd" clip-rule="evenodd" d="M72.4396 191.172L78.906 197.566L75.7153 200.793L72.4821 197.596C70.6966 195.83 70.6776 192.954 72.4397 191.172L72.4396 191.172Z" fill="#0666EB"/>
<path fill-rule="evenodd" clip-rule="evenodd" d="M72.509 190.189L66.0427 183.795L69.2334 180.568L72.4666 183.766C74.252 185.531 74.271 188.407 72.509 190.189L72.509 190.189Z" fill="#0666EB"/>
<path fill-rule="evenodd" clip-rule="evenodd" d="M62.4975 193.933L68.8787 187.48L72.1119 190.677L68.9211 193.904C67.1591 195.685 64.2832 195.699 62.4975 193.933L62.4975 193.933Z" fill="#0666EB"/>
<path fill-rule="evenodd" clip-rule="evenodd" d="M82.4452 187.561L76.064 194.015L72.8308 190.818L76.0216 187.591C77.7836 185.809 80.6595 185.796 82.4452 187.561L82.4452 187.561Z" fill="#0666EB"/>
<path fill-rule="evenodd" clip-rule="evenodd" d="M97.2638 166.347L103.73 172.741L100.54 175.968L97.3063 172.771C95.5208 171.005 95.5019 168.129 97.2639 166.347L97.2638 166.347Z" fill="#0666EB"/>
<path fill-rule="evenodd" clip-rule="evenodd" d="M97.3333 165.364L90.8669 158.97L94.0576 155.743L97.2908 158.94C99.0763 160.706 99.0952 163.582 97.3332 165.364L97.3333 165.364Z" fill="#0666EB"/>
<path fill-rule="evenodd" clip-rule="evenodd" d="M87.3217 169.108L93.7029 162.654L96.9361 165.851L93.7453 169.078C91.9833 170.86 89.1074 170.873 87.3217 169.108L87.3217 169.108Z" fill="#0666EB"/>
<path fill-rule="evenodd" clip-rule="evenodd" d="M107.269 162.736L100.888 169.189L97.655 165.992L100.846 162.765C102.608 160.984 105.484 160.97 107.269 162.736L107.269 162.736Z" fill="#0666EB"/>
<path fill-rule="evenodd" clip-rule="evenodd" d="M122.09 141.522L128.556 147.917L125.366 151.143L122.132 147.946C120.347 146.18 120.328 143.304 122.09 141.522L122.09 141.522Z" fill="#0666EB"/>
<path fill-rule="evenodd" clip-rule="evenodd" d="M122.159 140.539L115.693 134.145L118.884 130.919L122.117 134.116C123.902 135.881 123.921 138.758 122.159 140.539L122.159 140.539Z" fill="#0666EB"/>
<path fill-rule="evenodd" clip-rule="evenodd" d="M112.148 144.283L118.529 137.83L121.762 141.027L118.571 144.254C116.809 146.036 113.934 146.049 112.148 144.283L112.148 144.283Z" fill="#0666EB"/>
<path fill-rule="evenodd" clip-rule="evenodd" d="M132.096 137.911L125.714 144.365L122.481 141.168L125.672 137.941C127.434 136.159 130.31 136.146 132.096 137.911L132.096 137.911Z" fill="#0666EB"/>
<path fill-rule="evenodd" clip-rule="evenodd" d="M146.914 116.698L153.381 123.092L150.19 126.319L146.957 123.121C145.171 121.356 145.152 118.48 146.914 116.698L146.914 116.698Z" fill="#0666EB"/>
<path fill-rule="evenodd" clip-rule="evenodd" d="M146.984 115.715L140.517 109.321L143.708 106.094L146.941 109.291C148.727 111.057 148.746 113.933 146.984 115.715L146.984 115.715Z" fill="#0666EB"/>
<path fill-rule="evenodd" clip-rule="evenodd" d="M136.972 119.459L143.353 113.005L146.587 116.202L143.396 119.429C141.634 121.211 138.758 121.224 136.972 119.459L136.972 119.459Z" fill="#0666EB"/>
<path fill-rule="evenodd" clip-rule="evenodd" d="M156.92 113.087L150.539 119.54L147.305 116.343L150.496 113.116C152.258 111.334 155.134 111.321 156.92 113.087L156.92 113.087Z" fill="#0666EB"/>
<path fill-rule="evenodd" clip-rule="evenodd" d="M171.737 91.8725L178.203 98.2666L175.012 101.493L171.779 98.2962C169.994 96.5305 169.975 93.6544 171.737 91.8725L171.737 91.8725Z" fill="#0666EB"/>
<path fill-rule="evenodd" clip-rule="evenodd" d="M171.808 90.8895L165.342 84.4954L168.532 81.2687L171.765 84.4658C173.551 86.2316 173.57 89.1077 171.808 90.8895L171.808 90.8895Z" fill="#0666EB"/>
<path fill-rule="evenodd" clip-rule="evenodd" d="M161.796 94.6334L168.178 88.1799L171.411 91.377L168.22 94.6038C166.458 96.3857 163.582 96.399 161.796 94.6334L161.796 94.6334Z" fill="#0666EB"/>
<path fill-rule="evenodd" clip-rule="evenodd" d="M181.744 88.2614L175.363 94.715L172.13 91.5178L175.32 88.291C177.082 86.5091 179.958 86.4958 181.744 88.2615L181.744 88.2614Z" fill="#0666EB"/>
<path fill-rule="evenodd" clip-rule="evenodd" d="M80.715 249.097L87.1814 255.491L83.9907 258.718L80.7575 255.521C78.972 253.755 78.953 250.879 80.7151 249.097L80.715 249.097Z" fill="#0666EB"/>
<path fill-rule="evenodd" clip-rule="evenodd" d="M80.7864 248.114L74.32 241.72L77.5107 238.493L80.7439 241.69C82.5294 243.456 82.5484 246.332 80.7863 248.114L80.7864 248.114Z" fill="#0666EB"/>
<path fill-rule="evenodd" clip-rule="evenodd" d="M70.7748 251.858L77.156 245.404L80.3892 248.601L77.1984 251.828C75.4364 253.61 72.5605 253.623 70.7748 251.858L70.7748 251.858Z" fill="#0666EB"/>
<path fill-rule="evenodd" clip-rule="evenodd" d="M90.7225 245.486L84.3413 251.939L81.1081 248.742L84.2989 245.515C86.061 243.734 88.9368 243.72 90.7225 245.486L90.7225 245.486Z" fill="#0666EB"/>
<path fill-rule="evenodd" clip-rule="evenodd" d="M105.541 224.273L112.008 230.667L108.817 233.893L105.584 230.696C103.798 228.931 103.779 226.054 105.541 224.273L105.541 224.273Z" fill="#0666EB"/>
<path fill-rule="evenodd" clip-rule="evenodd" d="M105.611 223.29L99.1443 216.896L102.335 213.669L105.568 216.866C107.354 218.632 107.373 221.508 105.611 223.29L105.611 223.29Z" fill="#0666EB"/>
<path fill-rule="evenodd" clip-rule="evenodd" d="M95.599 227.034L101.98 220.58L105.213 223.777L102.023 227.004C100.261 228.786 97.3847 228.799 95.599 227.033L95.599 227.034Z" fill="#0666EB"/>
<path fill-rule="evenodd" clip-rule="evenodd" d="M115.547 220.661L109.166 227.115L105.932 223.918L109.123 220.691C110.885 218.909 113.761 218.896 115.547 220.661L115.547 220.661Z" fill="#0666EB"/>
<path fill-rule="evenodd" clip-rule="evenodd" d="M130.365 199.448L136.832 205.842L133.641 209.069L130.408 205.872C128.622 204.106 128.603 201.23 130.365 199.448L130.365 199.448Z" fill="#0666EB"/>
<path fill-rule="evenodd" clip-rule="evenodd" d="M130.435 198.465L123.968 192.071L127.159 188.844L130.392 192.041C132.178 193.807 132.197 196.683 130.435 198.465L130.435 198.465Z" fill="#0666EB"/>
<path fill-rule="evenodd" clip-rule="evenodd" d="M120.423 202.209L126.804 195.755L130.038 198.952L126.847 202.179C125.085 203.961 122.209 203.974 120.423 202.209L120.423 202.209Z" fill="#0666EB"/>
<path fill-rule="evenodd" clip-rule="evenodd" d="M140.371 195.837L133.99 202.29L130.757 199.093L133.947 195.866C135.709 194.085 138.585 194.071 140.371 195.837L140.371 195.837Z" fill="#0666EB"/>
<path fill-rule="evenodd" clip-rule="evenodd" d="M155.192 174.623L161.658 181.017L158.467 184.244L155.234 181.046C153.449 179.281 153.43 176.405 155.192 174.623L155.192 174.623Z" fill="#0666EB"/>
<path fill-rule="evenodd" clip-rule="evenodd" d="M155.261 173.64L148.795 167.246L151.985 164.019L155.219 167.216C157.004 168.982 157.023 171.858 155.261 173.64L155.261 173.64Z" fill="#0666EB"/>
<path fill-rule="evenodd" clip-rule="evenodd" d="M145.249 177.384L151.631 170.93L154.864 174.127L151.673 177.354C149.911 179.136 147.035 179.149 145.249 177.384L145.249 177.384Z" fill="#0666EB"/>
<path fill-rule="evenodd" clip-rule="evenodd" d="M165.197 171.012L158.816 177.465L155.583 174.268L158.774 171.041C160.536 169.259 163.411 169.246 165.197 171.012L165.197 171.012Z" fill="#0666EB"/>
<path fill-rule="evenodd" clip-rule="evenodd" d="M180.016 149.798L186.482 156.192L183.291 159.419L180.058 156.222C178.273 154.456 178.254 151.58 180.016 149.798L180.016 149.798Z" fill="#0666EB"/>
<path fill-rule="evenodd" clip-rule="evenodd" d="M180.085 148.815L173.619 142.421L176.81 139.194L180.043 142.391C181.828 144.157 181.847 147.033 180.085 148.815L180.085 148.815Z" fill="#0666EB"/>
<path fill-rule="evenodd" clip-rule="evenodd" d="M170.074 152.559L176.455 146.105L179.688 149.303L176.497 152.529C174.735 154.311 171.859 154.325 170.074 152.559L170.074 152.559Z" fill="#0666EB"/>
<path fill-rule="evenodd" clip-rule="evenodd" d="M190.021 146.187L183.64 152.641L180.407 149.443L183.598 146.217C185.36 144.435 188.236 144.421 190.021 146.187L190.021 146.187Z" fill="#0666EB"/>
<path fill-rule="evenodd" clip-rule="evenodd" d="M204.84 124.973L211.306 131.367L208.116 134.594L204.882 131.397C203.097 129.631 203.078 126.755 204.84 124.973L204.84 124.973Z" fill="#0666EB"/>
<path fill-rule="evenodd" clip-rule="evenodd" d="M204.909 123.99L198.443 117.596L201.634 114.369L204.867 117.567C206.652 119.332 206.671 122.208 204.909 123.99L204.909 123.99Z" fill="#0666EB"/>
<path fill-rule="evenodd" clip-rule="evenodd" d="M194.898 127.734L201.279 121.281L204.512 124.478L201.321 127.705C199.559 129.486 196.684 129.5 194.898 127.734L194.898 127.734Z" fill="#0666EB"/>
<path fill-rule="evenodd" clip-rule="evenodd" d="M214.846 121.362L208.464 127.816L205.231 124.619L208.422 121.392C210.184 119.61 213.06 119.597 214.846 121.362L214.846 121.362Z" fill="#0666EB"/>
<path fill-rule="evenodd" clip-rule="evenodd" d="M113.817 282.197L120.283 288.592L117.092 291.818L113.859 288.621C112.074 286.855 112.055 283.979 113.817 282.197L113.817 282.197Z" fill="#0666EB"/>
<path fill-rule="evenodd" clip-rule="evenodd" d="M113.886 281.215L107.42 274.82L110.61 271.594L113.844 274.791C115.629 276.557 115.648 279.433 113.886 281.215L113.886 281.215Z" fill="#0666EB"/>
<path fill-rule="evenodd" clip-rule="evenodd" d="M103.874 284.958L110.256 278.505L113.489 281.702L110.298 284.929C108.536 286.711 105.66 286.724 103.874 284.958L103.874 284.958Z" fill="#0666EB"/>
<path fill-rule="evenodd" clip-rule="evenodd" d="M123.822 278.586L117.441 285.04L114.208 281.843L117.399 278.616C119.161 276.834 122.036 276.821 123.822 278.586L123.822 278.586Z" fill="#0666EB"/>
<path fill-rule="evenodd" clip-rule="evenodd" d="M138.641 257.373L145.107 263.767L141.916 266.994L138.683 263.797C136.898 262.031 136.879 259.155 138.641 257.373L138.641 257.373Z" fill="#0666EB"/>
<path fill-rule="evenodd" clip-rule="evenodd" d="M138.71 256.39L132.244 249.996L135.435 246.769L138.668 249.966C140.453 251.732 140.472 254.608 138.71 256.39L138.71 256.39Z" fill="#0666EB"/>
<path fill-rule="evenodd" clip-rule="evenodd" d="M128.699 260.134L135.08 253.68L138.313 256.877L135.122 260.104C133.36 261.886 130.484 261.899 128.699 260.134L128.699 260.134Z" fill="#0666EB"/>
<path fill-rule="evenodd" clip-rule="evenodd" d="M148.646 253.762L142.265 260.215L139.032 257.018L142.223 253.791C143.985 252.01 146.861 251.996 148.646 253.762L148.646 253.762Z" fill="#0666EB"/>
<path fill-rule="evenodd" clip-rule="evenodd" d="M163.463 232.548L169.929 238.942L166.739 242.168L163.506 238.971C161.72 237.206 161.701 234.329 163.463 232.548L163.463 232.548Z" fill="#0666EB"/>
<path fill-rule="evenodd" clip-rule="evenodd" d="M163.534 231.565L157.068 225.171L160.259 221.944L163.492 225.141C165.277 226.907 165.296 229.783 163.534 231.565L163.534 231.565Z" fill="#0666EB"/>
<path fill-rule="evenodd" clip-rule="evenodd" d="M153.523 235.309L159.904 228.855L163.137 232.052L159.946 235.279C158.184 237.061 155.309 237.074 153.523 235.308L153.523 235.309Z" fill="#0666EB"/>
<path fill-rule="evenodd" clip-rule="evenodd" d="M173.471 228.937L167.089 235.39L163.856 232.193L167.047 228.966C168.809 227.184 171.685 227.171 173.471 228.937L173.471 228.937Z" fill="#0666EB"/>
<path fill-rule="evenodd" clip-rule="evenodd" d="M188.291 207.723L194.758 214.117L191.567 217.344L188.334 214.147C186.548 212.381 186.529 209.505 188.291 207.723L188.291 207.723Z" fill="#0666EB"/>
<path fill-rule="evenodd" clip-rule="evenodd" d="M188.361 206.74L181.894 200.346L185.085 197.119L188.318 200.316C190.104 202.082 190.123 204.958 188.361 206.74L188.361 206.74Z" fill="#0666EB"/>
<path fill-rule="evenodd" clip-rule="evenodd" d="M178.349 210.484L184.73 204.03L187.963 207.228L184.773 210.454C183.011 212.236 180.135 212.25 178.349 210.484L178.349 210.484Z" fill="#0666EB"/>
<path fill-rule="evenodd" clip-rule="evenodd" d="M198.297 204.112L191.916 210.565L188.682 207.368L191.873 204.142C193.635 202.36 196.511 202.346 198.297 204.112L198.297 204.112Z" fill="#0666EB"/>
<path fill-rule="evenodd" clip-rule="evenodd" d="M213.113 182.898L219.58 189.293L216.389 192.519L213.156 189.322C211.37 187.556 211.351 184.68 213.114 182.898L213.113 182.898Z" fill="#0666EB"/>
<path fill-rule="evenodd" clip-rule="evenodd" d="M213.185 181.915L206.718 175.521L209.909 172.295L213.142 175.492C214.928 177.258 214.947 180.134 213.185 181.915L213.185 181.915Z" fill="#0666EB"/>
<path fill-rule="evenodd" clip-rule="evenodd" d="M203.173 185.659L209.554 179.206L212.788 182.403L209.597 185.63C207.835 187.412 204.959 187.425 203.173 185.659L203.173 185.659Z" fill="#0666EB"/>
<path fill-rule="evenodd" clip-rule="evenodd" d="M223.121 179.287L216.74 185.741L213.507 182.544L216.697 179.317C218.459 177.535 221.335 177.522 223.121 179.287L223.121 179.287Z" fill="#0666EB"/>
<path fill-rule="evenodd" clip-rule="evenodd" d="M237.94 158.074L244.406 164.468L241.215 167.695L237.982 164.497C236.197 162.732 236.178 159.856 237.94 158.074L237.94 158.074Z" fill="#0666EB"/>
<path fill-rule="evenodd" clip-rule="evenodd" d="M238.009 157.091L231.543 150.697L234.733 147.47L237.967 150.667C239.752 152.433 239.771 155.309 238.009 157.091L238.009 157.091Z" fill="#0666EB"/>
<path fill-rule="evenodd" clip-rule="evenodd" d="M227.997 160.835L234.379 154.381L237.612 157.578L234.421 160.805C232.659 162.587 229.783 162.6 227.997 160.835L227.997 160.835Z" fill="#0666EB"/>
<path fill-rule="evenodd" clip-rule="evenodd" d="M247.211 154.239L240.83 160.692L237.596 157.495L240.787 154.268C242.549 152.486 245.425 152.473 247.211 154.239L247.211 154.239Z" fill="#0666EB"/>
<path fill-rule="evenodd" clip-rule="evenodd" d="M171.81 289.49L165.343 283.096L168.534 279.869L171.767 283.067C173.553 284.832 173.572 287.708 171.81 289.49L171.81 289.49Z" fill="#0666EB"/>
<path fill-rule="evenodd" clip-rule="evenodd" d="M161.798 293.234L168.179 286.781L171.413 289.978L168.222 293.205C166.46 294.987 163.584 295 161.798 293.234L161.798 293.234Z" fill="#0666EB"/>
<path fill-rule="evenodd" clip-rule="evenodd" d="M181.746 286.862L175.365 293.316L172.132 290.119L175.322 286.892C177.084 285.11 179.96 285.097 181.746 286.862L181.746 286.862Z" fill="#0666EB"/>
<path fill-rule="evenodd" clip-rule="evenodd" d="M196.563 265.649L203.029 272.043L199.838 275.269L196.605 272.072C194.82 270.307 194.801 267.43 196.563 265.649L196.563 265.649Z" fill="#0666EB"/>
<path fill-rule="evenodd" clip-rule="evenodd" d="M196.634 264.666L190.168 258.272L193.358 255.045L196.592 258.242C198.377 260.008 198.396 262.884 196.634 264.666L196.634 264.666Z" fill="#0666EB"/>
<path fill-rule="evenodd" clip-rule="evenodd" d="M186.622 268.41L193.004 261.956L196.237 265.153L193.046 268.38C191.284 270.162 188.408 270.175 186.622 268.409L186.622 268.41Z" fill="#0666EB"/>
<path fill-rule="evenodd" clip-rule="evenodd" d="M206.57 262.037L200.189 268.491L196.956 265.294L200.147 262.067C201.909 260.285 204.784 260.272 206.57 262.038L206.57 262.037Z" fill="#0666EB"/>
<path fill-rule="evenodd" clip-rule="evenodd" d="M221.391 240.824L227.857 247.218L224.666 250.445L221.433 247.248C219.648 245.482 219.629 242.606 221.391 240.824L221.391 240.824Z" fill="#0666EB"/>
<path fill-rule="evenodd" clip-rule="evenodd" d="M221.46 239.841L214.994 233.447L218.185 230.22L221.418 233.417C223.203 235.183 223.222 238.059 221.46 239.841L221.46 239.841Z" fill="#0666EB"/>
<path fill-rule="evenodd" clip-rule="evenodd" d="M211.449 243.585L217.83 237.131L221.063 240.329L217.872 243.555C216.11 245.337 213.234 245.351 211.449 243.585L211.449 243.585Z" fill="#0666EB"/>
<path fill-rule="evenodd" clip-rule="evenodd" d="M231.396 237.213L225.015 243.666L221.782 240.469L224.973 237.242C226.735 235.461 229.611 235.447 231.396 237.213L231.396 237.213Z" fill="#0666EB"/>
<path fill-rule="evenodd" clip-rule="evenodd" d="M246.213 215.999L252.679 222.394L249.489 225.62L246.256 222.423C244.47 220.657 244.451 217.781 246.213 215.999L246.213 215.999Z" fill="#0666EB"/>
<path fill-rule="evenodd" clip-rule="evenodd" d="M246.284 215.016L239.818 208.622L243.009 205.396L246.242 208.593C248.027 210.359 248.046 213.235 246.284 215.016L246.284 215.016Z" fill="#0666EB"/>
<path fill-rule="evenodd" clip-rule="evenodd" d="M236.273 218.76L242.654 212.307L245.887 215.504L242.696 218.731C240.934 220.513 238.059 220.526 236.273 218.76L236.273 218.76Z" fill="#0666EB"/>
<path fill-rule="evenodd" clip-rule="evenodd" d="M256.221 212.388L249.839 218.842L246.606 215.645L249.797 212.418C251.559 210.636 254.435 210.623 256.221 212.388L256.221 212.388Z" fill="#0666EB"/>
<path fill-rule="evenodd" clip-rule="evenodd" d="M271.039 191.175L277.506 197.569L274.315 200.796L271.082 197.598C269.296 195.833 269.277 192.957 271.039 191.175L271.039 191.175Z" fill="#0666EB"/>
<path fill-rule="evenodd" clip-rule="evenodd" d="M271.109 190.192L264.642 183.798L267.833 180.571L271.066 183.768C272.852 185.534 272.871 188.41 271.109 190.192L271.109 190.192Z" fill="#0666EB"/>
<path fill-rule="evenodd" clip-rule="evenodd" d="M261.097 193.936L267.478 187.482L270.712 190.679L267.521 193.906C265.759 195.688 262.883 195.701 261.097 193.936L261.097 193.936Z" fill="#0666EB"/>
<path fill-rule="evenodd" clip-rule="evenodd" d="M281.045 187.564L274.664 194.017L271.43 190.82L274.621 187.593C276.383 185.811 279.259 185.798 281.045 187.564L281.045 187.564Z" fill="#0666EB"/>
<path fill-rule="evenodd" clip-rule="evenodd" d="M229.736 297.766L223.269 291.372L226.46 288.145L229.693 291.342C231.479 293.108 231.498 295.984 229.736 297.766L229.736 297.766Z" fill="#0666EB"/>
<path fill-rule="evenodd" clip-rule="evenodd" d="M254.492 273.924L260.959 280.318L257.768 283.545L254.535 280.348C252.749 278.582 252.73 275.706 254.492 273.924L254.492 273.924Z" fill="#0666EB"/>
<path fill-rule="evenodd" clip-rule="evenodd" d="M254.562 272.941L248.095 266.547L251.286 263.321L254.519 266.518C256.305 268.283 256.324 271.16 254.562 272.941L254.562 272.941Z" fill="#0666EB"/>
<path fill-rule="evenodd" clip-rule="evenodd" d="M244.55 276.685L250.931 270.232L254.165 273.429L250.974 276.656C249.212 278.438 246.336 278.451 244.55 276.685L244.55 276.685Z" fill="#0666EB"/>
<path fill-rule="evenodd" clip-rule="evenodd" d="M264.498 270.313L258.117 276.767L254.884 273.57L258.074 270.343C259.836 268.561 262.712 268.548 264.498 270.313L264.498 270.313Z" fill="#0666EB"/>
<path fill-rule="evenodd" clip-rule="evenodd" d="M279.317 249.1L285.783 255.494L282.592 258.721L279.359 255.523C277.574 253.758 277.555 250.882 279.317 249.1L279.317 249.1Z" fill="#0666EB"/>
<path fill-rule="evenodd" clip-rule="evenodd" d="M279.386 248.117L272.92 241.723L276.11 238.496L279.344 241.693C281.129 243.459 281.148 246.335 279.386 248.117L279.386 248.117Z" fill="#0666EB"/>
<path fill-rule="evenodd" clip-rule="evenodd" d="M269.374 251.861L275.756 245.407L278.989 248.604L275.798 251.831C274.036 253.613 271.16 253.626 269.374 251.861L269.374 251.861Z" fill="#0666EB"/>
<path fill-rule="evenodd" clip-rule="evenodd" d="M289.322 245.489L282.941 251.942L279.708 248.745L282.899 245.518C284.661 243.736 287.536 243.723 289.322 245.489L289.322 245.489Z" fill="#0666EB"/>
<path fill-rule="evenodd" clip-rule="evenodd" d="M304.141 224.275L310.607 230.669L307.416 233.896L304.183 230.699C302.398 228.933 302.379 226.057 304.141 224.275L304.141 224.275Z" fill="#0666EB"/>
<path fill-rule="evenodd" clip-rule="evenodd" d="M304.21 223.292L297.744 216.898L300.935 213.671L304.168 216.869C305.953 218.634 305.972 221.51 304.21 223.292L304.21 223.292Z" fill="#0666EB"/>
<path fill-rule="evenodd" clip-rule="evenodd" d="M294.199 227.036L300.58 220.583L303.813 223.78L300.622 227.006C298.86 228.788 295.984 228.802 294.199 227.036L294.199 227.036Z" fill="#0666EB"/>
<path fill-rule="evenodd" clip-rule="evenodd" d="M314.146 220.664L307.765 227.118L304.532 223.92L307.723 220.694C309.485 218.912 312.361 218.898 314.146 220.664L314.146 220.664Z" fill="#0666EB"/>
<path fill-rule="evenodd" clip-rule="evenodd" d="M312.416 282.199L318.883 288.594L315.692 291.82L312.459 288.623C310.673 286.857 310.654 283.981 312.416 282.199L312.416 282.199Z" fill="#0666EB"/>
<path fill-rule="evenodd" clip-rule="evenodd" d="M312.486 281.216L306.019 274.822L309.21 271.596L312.443 274.793C314.229 276.559 314.248 279.435 312.486 281.216L312.486 281.216Z" fill="#0666EB"/>
<path fill-rule="evenodd" clip-rule="evenodd" d="M302.474 284.96L308.855 278.507L312.088 281.704L308.898 284.931C307.136 286.713 304.26 286.726 302.474 284.96L302.474 284.96Z" fill="#0666EB"/>
<path fill-rule="evenodd" clip-rule="evenodd" d="M322.422 278.588L316.041 285.042L312.807 281.845L315.998 278.618C317.76 276.836 320.636 276.823 322.422 278.588L322.422 278.588Z" fill="#0666EB"/>
<path fill-rule="evenodd" clip-rule="evenodd" d="M337.24 257.375L343.707 263.769L340.516 266.995L337.283 263.798C335.497 262.032 335.478 259.156 337.24 257.375L337.24 257.375Z" fill="#0666EB"/>
<path fill-rule="evenodd" clip-rule="evenodd" d="M337.31 256.392L330.843 249.997L334.034 246.771L337.267 249.968C339.053 251.734 339.072 254.61 337.31 256.392L337.31 256.392Z" fill="#0666EB"/>
<path fill-rule="evenodd" clip-rule="evenodd" d="M327.298 260.135L333.679 253.682L336.913 256.879L333.722 260.106C331.96 261.888 329.084 261.901 327.298 260.135L327.298 260.135Z" fill="#0666EB"/>
<path fill-rule="evenodd" clip-rule="evenodd" d="M347.246 253.763L340.865 260.217L337.632 257.02L340.822 253.793C342.584 252.011 345.46 251.998 347.246 253.763L347.246 253.763Z" fill="#0666EB"/>
<path fill-rule="evenodd" clip-rule="evenodd" d="M370.411 289.493L363.945 283.099L367.136 279.872L370.369 283.069C372.154 284.835 372.173 287.711 370.411 289.493L370.411 289.493Z" fill="#0666EB"/>
<path fill-rule="evenodd" clip-rule="evenodd" d="M360.4 293.237L366.781 286.783L370.014 289.98L366.823 293.207C365.061 294.989 362.186 295.002 360.4 293.237L360.4 293.237Z" fill="#0666EB"/>
<path fill-rule="evenodd" clip-rule="evenodd" d="M380.348 286.865L373.966 293.318L370.733 290.121L373.924 286.894C375.686 285.112 378.562 285.099 380.348 286.865L380.348 286.865Z" fill="#0666EB"/>
<path fill-rule="evenodd" clip-rule="evenodd" d="M-4.36115 207.773L2.1052 214.167L-1.08547 217.394L-4.31868 214.197C-6.10415 212.431 -6.12314 209.555 -4.36109 207.773L-4.36115 207.773Z" fill="#0666EB"/>
<path fill-rule="evenodd" clip-rule="evenodd" d="M5.6444 204.162L-0.736807 210.615L-3.97001 207.418L-0.779215 204.191C0.982836 202.409 3.85871 202.396 5.6444 204.162L5.6444 204.162Z" fill="#0666EB"/>
<path fill-rule="evenodd" clip-rule="evenodd" d="M3.91424 265.698L10.3806 272.092L7.18992 275.319L3.95671 272.121C2.17124 270.356 2.15225 267.48 3.9143 265.698L3.91424 265.698Z" fill="#0666EB"/>
<path fill-rule="evenodd" clip-rule="evenodd" d="M3.98364 264.715L-2.4827 258.321L0.707967 255.094L3.94117 258.291C5.72665 260.057 5.74563 262.933 3.98358 264.715L3.98364 264.715Z" fill="#0666EB"/>
<path fill-rule="evenodd" clip-rule="evenodd" d="M-6.0279 268.459L0.353307 262.005L3.58651 265.202L0.395715 268.429C-1.36634 270.211 -4.24221 270.224 -6.0279 268.459L-6.0279 268.459Z" fill="#0666EB"/>
<path fill-rule="evenodd" clip-rule="evenodd" d="M13.9198 262.087L7.53858 268.54L4.30538 265.343L7.49618 262.116C9.25823 260.334 12.1341 260.321 13.9198 262.087L13.9198 262.087Z" fill="#0666EB"/>
<path fill-rule="evenodd" clip-rule="evenodd" d="M28.7365 240.872L35.2029 247.267L32.0122 250.493L28.779 247.296C26.9935 245.53 26.9745 242.654 28.7366 240.872L28.7365 240.872Z" fill="#0666EB"/>
<path fill-rule="evenodd" clip-rule="evenodd" d="M28.8079 239.89L22.3415 233.495L25.5322 230.269L28.7654 233.466C30.5509 235.232 30.5699 238.108 28.8078 239.89L28.8079 239.89Z" fill="#0666EB"/>
<path fill-rule="evenodd" clip-rule="evenodd" d="M18.7963 243.633L25.1775 237.18L28.4107 240.377L25.2199 243.604C23.4579 245.386 20.582 245.399 18.7963 243.633L18.7963 243.633Z" fill="#0666EB"/>
<path fill-rule="evenodd" clip-rule="evenodd" d="M38.744 237.261L32.3628 243.715L29.1296 240.518L32.3204 237.291C34.0824 235.509 36.9583 235.496 38.744 237.261L38.744 237.261Z" fill="#0666EB"/>
<path fill-rule="evenodd" clip-rule="evenodd" d="M37.0852 297.815L30.6189 291.421L33.8095 288.194L37.0427 291.391C38.8282 293.157 38.8472 296.033 37.0851 297.815L37.0852 297.815Z" fill="#0666EB"/>
<path fill-rule="evenodd" clip-rule="evenodd" d="M61.84 273.973L68.3064 280.367L65.1157 283.594L61.8825 280.397C60.097 278.631 60.078 275.755 61.8401 273.973L61.84 273.973Z" fill="#0666EB"/>
<path fill-rule="evenodd" clip-rule="evenodd" d="M61.9094 272.99L55.4431 266.596L58.6337 263.369L61.867 266.567C63.6524 268.332 63.6714 271.208 61.9094 272.99L61.9094 272.99Z" fill="#0666EB"/>
<path fill-rule="evenodd" clip-rule="evenodd" d="M51.8979 276.734L58.2791 270.281L61.5123 273.478L58.3215 276.705C56.5594 278.486 53.6836 278.5 51.8979 276.734L51.8979 276.734Z" fill="#0666EB"/>
<path fill-rule="evenodd" clip-rule="evenodd" d="M71.8456 270.362L65.4644 276.816L62.2312 273.619L65.422 270.392C67.184 268.61 70.0599 268.597 71.8456 270.362L71.8456 270.362Z" fill="#0666EB"/>
<path fill-rule="evenodd" clip-rule="evenodd" d="M-2.50763 16.9243L3.95871 23.3185L0.768042 26.5452L-2.46516 23.348C-4.25063 21.5823 -4.26962 18.7062 -2.50757 16.9243L-2.50763 16.9243Z" fill="#0666EB"/>
<path fill-rule="evenodd" clip-rule="evenodd" d="M7.49792 13.3132L1.11671 19.7668L-2.1165 16.5697L1.0743 13.3428C2.83635 11.5609 5.71222 11.5477 7.49792 13.3133L7.49792 13.3132Z" fill="#0666EB"/>
<path fill-rule="evenodd" clip-rule="evenodd" d="M22.3166 -7.90029L28.7829 -1.50615L25.5923 1.72054L22.3591 -1.4766C20.5736 -3.24234 20.5546 -6.11844 22.3166 -7.90029L22.3166 -7.90029Z" fill="#0666EB"/>
<path fill-rule="evenodd" clip-rule="evenodd" d="M5.7658 74.8493L12.2321 81.2434L9.04148 84.4701L5.80827 81.273C4.0228 79.5072 4.00382 76.6311 5.76587 74.8493L5.7658 74.8493Z" fill="#0666EB"/>
<path fill-rule="evenodd" clip-rule="evenodd" d="M5.83521 73.8663L-0.63114 67.4722L2.55953 64.2455L5.79274 67.4426C7.57821 69.2084 7.5972 72.0845 5.83514 73.8663L5.83521 73.8663Z" fill="#0666EB"/>
<path fill-rule="evenodd" clip-rule="evenodd" d="M-4.17634 77.6102L2.20487 71.1566L5.43808 74.3538L2.24728 77.5806C0.485226 79.3625 -2.39065 79.3758 -4.17634 77.6101L-4.17634 77.6102Z" fill="#0666EB"/>
<path fill-rule="evenodd" clip-rule="evenodd" d="M15.7714 71.2382L9.39015 77.6917L6.15694 74.4946L9.34774 71.2678C11.1098 69.4859 13.9857 69.4726 15.7714 71.2382L15.7714 71.2382Z" fill="#0666EB"/>
<path fill-rule="evenodd" clip-rule="evenodd" d="M30.592 50.0247L37.0583 56.4188L33.8677 59.6455L30.6344 56.4484C28.849 54.6826 28.83 51.8065 30.592 50.0247L30.592 50.0247Z" fill="#0666EB"/>
<path fill-rule="evenodd" clip-rule="evenodd" d="M30.6614 49.0417L24.195 42.6476L27.3857 39.4209L30.6189 42.618C32.4044 44.3838 32.4234 47.2599 30.6613 49.0417L30.6614 49.0417Z" fill="#0666EB"/>
<path fill-rule="evenodd" clip-rule="evenodd" d="M20.6498 52.7856L27.031 46.332L30.2642 49.5292L27.0734 52.756C25.3114 54.5379 22.4355 54.5512 20.6498 52.7856L20.6498 52.7856Z" fill="#0666EB"/>
<path fill-rule="evenodd" clip-rule="evenodd" d="M40.5975 46.4136L34.2163 52.8671L30.9831 49.67L34.1739 46.4432C35.936 44.6612 38.8118 44.648 40.5975 46.4136L40.5975 46.4136Z" fill="#0666EB"/>
<path fill-rule="evenodd" clip-rule="evenodd" d="M55.4162 25.1994L61.8825 31.5935L58.6919 34.8202L55.4587 31.6231C53.6732 29.8573 53.6542 26.9812 55.4163 25.1994L55.4162 25.1994Z" fill="#0666EB"/>
<path fill-rule="evenodd" clip-rule="evenodd" d="M55.4856 24.2164L49.0193 17.8223L52.2099 14.5956L55.4431 17.7927C57.2286 19.5585 57.2476 22.4346 55.4855 24.2164L55.4856 24.2164Z" fill="#0666EB"/>
<path fill-rule="evenodd" clip-rule="evenodd" d="M45.474 27.9603L51.8553 21.5067L55.0885 24.7039L51.8977 27.9307C50.1356 29.7126 47.2597 29.7259 45.474 27.9602L45.474 27.9603Z" fill="#0666EB"/>
<path fill-rule="evenodd" clip-rule="evenodd" d="M65.4217 21.5883L59.0405 28.0418L55.8073 24.8447L58.9981 21.6179C60.7602 19.836 63.6361 19.8227 65.4217 21.5883L65.4217 21.5883Z" fill="#0666EB"/>
<path fill-rule="evenodd" clip-rule="evenodd" d="M80.2404 0.374525L86.7068 6.76866L83.5161 9.99535L80.2829 6.79822C78.4974 5.03247 78.4784 2.15637 80.2405 0.374525L80.2404 0.374525Z" fill="#0666EB"/>
<path fill-rule="evenodd" clip-rule="evenodd" d="M70.2983 3.13544L76.6795 -3.31813L79.9127 -0.121L76.7219 3.10582C74.9598 4.88776 72.084 4.90099 70.2983 3.13537L70.2983 3.13544Z" fill="#0666EB"/>
<path fill-rule="evenodd" clip-rule="evenodd" d="M90.246 -3.23659L83.8648 3.21698L80.6315 0.019852L83.8223 -3.20697C85.5844 -4.98891 88.4603 -5.00214 90.246 -3.23652L90.246 -3.23659Z" fill="#0666EB"/>
<path fill-rule="evenodd" clip-rule="evenodd" d="M14.0431 132.774L20.5095 139.168L17.3188 142.395L14.0856 139.198C12.3001 137.432 12.2812 134.556 14.0432 132.774L14.0431 132.774Z" fill="#0666EB"/>
<path fill-rule="evenodd" clip-rule="evenodd" d="M14.1125 131.791L7.6462 125.397L10.8369 122.17L14.0701 125.368C15.8556 127.133 15.8745 130.009 14.1125 131.791L14.1125 131.791Z" fill="#0666EB"/>
<path fill-rule="evenodd" clip-rule="evenodd" d="M4.101 135.535L10.4822 129.082L13.7154 132.279L10.5246 135.506C8.76257 137.287 5.8867 137.301 4.101 135.535L4.101 135.535Z" fill="#0666EB"/>
<path fill-rule="evenodd" clip-rule="evenodd" d="M24.0487 129.163L17.6675 135.617L14.4343 132.42L17.6251 129.193C19.3871 127.411 22.263 127.398 24.0487 129.163L24.0487 129.163Z" fill="#0666EB"/>
<path fill-rule="evenodd" clip-rule="evenodd" d="M38.8674 107.95L45.3337 114.344L42.143 117.57L38.9098 114.373C37.1244 112.608 37.1054 109.731 38.8674 107.95L38.8674 107.95Z" fill="#0666EB"/>
<path fill-rule="evenodd" clip-rule="evenodd" d="M38.9368 106.967L32.4704 100.573L35.6611 97.3458L38.8943 100.543C40.6798 102.309 40.6988 105.185 38.9367 106.967L38.9368 106.967Z" fill="#0666EB"/>
<path fill-rule="evenodd" clip-rule="evenodd" d="M28.9252 110.711L35.3064 104.257L38.5396 107.454L35.3488 110.681C33.5868 112.463 30.7109 112.476 28.9252 110.71L28.9252 110.711Z" fill="#0666EB"/>
<path fill-rule="evenodd" clip-rule="evenodd" d="M48.8729 104.339L42.4917 110.792L39.2585 107.595L42.4493 104.368C44.2114 102.586 47.0872 102.573 48.8729 104.339L48.8729 104.339Z" fill="#0666EB"/>
<path fill-rule="evenodd" clip-rule="evenodd" d="M63.6935 83.125L70.1599 89.5191L66.9692 92.7458L63.736 89.5487C61.9505 87.783 61.9316 84.9069 63.6936 83.125L63.6935 83.125Z" fill="#0666EB"/>
<path fill-rule="evenodd" clip-rule="evenodd" d="M63.7629 82.1421L57.2966 75.7479L60.4873 72.5212L63.7205 75.7184C65.5059 77.4841 65.5249 80.3602 63.7629 82.1421L63.7629 82.1421Z" fill="#0666EB"/>
<path fill-rule="evenodd" clip-rule="evenodd" d="M53.7514 85.8859L60.1326 79.4324L63.3658 82.6295L60.175 85.8563C58.413 87.6382 55.5371 87.6515 53.7514 85.8859L53.7514 85.8859Z" fill="#0666EB"/>
<path fill-rule="evenodd" clip-rule="evenodd" d="M73.6991 79.5139L67.3179 85.9675L64.0847 82.7703L67.2755 79.5435C69.0375 77.7616 71.9134 77.7483 73.6991 79.514L73.6991 79.5139Z" fill="#0666EB"/>
<path fill-rule="evenodd" clip-rule="evenodd" d="M88.5178 58.3004L94.9841 64.6945L91.7934 67.9212L88.5602 64.7241C86.7748 62.9583 86.7558 60.0822 88.5178 58.3004L88.5178 58.3004Z" fill="#0666EB"/>
<path fill-rule="evenodd" clip-rule="evenodd" d="M88.5872 57.3174L82.1208 50.9233L85.3115 47.6966L88.5447 50.8937C90.3302 52.6595 90.3491 55.5356 88.5871 57.3174L88.5872 57.3174Z" fill="#0666EB"/>
<path fill-rule="evenodd" clip-rule="evenodd" d="M78.5756 61.0613L84.9568 54.6078L88.19 57.8049L84.9992 61.0317C83.2372 62.8137 80.3613 62.8269 78.5756 61.0613L78.5756 61.0613Z" fill="#0666EB"/>
<path fill-rule="evenodd" clip-rule="evenodd" d="M98.5233 54.6893L92.1421 61.1429L88.9089 57.9457L92.0997 54.7189C93.8617 52.937 96.7376 52.9237 98.5233 54.6894L98.5233 54.6893Z" fill="#0666EB"/>
<path fill-rule="evenodd" clip-rule="evenodd" d="M113.342 33.4758L119.808 39.8699L116.618 43.0966L113.384 39.8995C111.599 38.1337 111.58 35.2576 113.342 33.4758L113.342 33.4758Z" fill="#0666EB"/>
<path fill-rule="evenodd" clip-rule="evenodd" d="M113.411 32.4928L106.945 26.0987L110.136 22.872L113.369 26.0691C115.154 27.8349 115.173 30.711 113.411 32.4928L113.411 32.4928Z" fill="#0666EB"/>
<path fill-rule="evenodd" clip-rule="evenodd" d="M103.4 36.2367L109.781 29.7832L113.014 32.9803L109.823 36.2071C108.061 37.989 105.186 38.0023 103.4 36.2367L103.4 36.2367Z" fill="#0666EB"/>
<path fill-rule="evenodd" clip-rule="evenodd" d="M123.348 29.8647L116.966 36.3182L113.733 33.1211L116.924 29.8943C118.686 28.1123 121.562 28.0991 123.348 29.8647L123.348 29.8647Z" fill="#0666EB"/>
<path fill-rule="evenodd" clip-rule="evenodd" d="M127.662 -1.65505L134.129 4.73909L130.938 7.96577L127.705 4.76864C125.919 3.0029 125.9 0.126799 127.662 -1.65505L127.662 -1.65505Z" fill="#0666EB"/>
<path fill-rule="evenodd" clip-rule="evenodd" d="M117.72 1.1059L124.101 -5.34767L127.335 -2.15054L124.144 1.07628C122.382 2.85822 119.506 2.87145 117.72 1.10583L117.72 1.1059Z" fill="#0666EB"/>
<path fill-rule="evenodd" clip-rule="evenodd" d="M137.668 -5.26616L131.287 1.18741L128.053 -2.00972L131.244 -5.23654C133.006 -7.01848 135.882 -7.03171 137.668 -5.26609L137.668 -5.26616Z" fill="#0666EB"/>
<path fill-rule="evenodd" clip-rule="evenodd" d="M160.762 31.4457L167.228 37.8399L164.038 41.0665L160.804 37.8694C159.019 36.1037 159 33.2276 160.762 31.4457L160.762 31.4457Z" fill="#0666EB"/>
<path fill-rule="evenodd" clip-rule="evenodd" d="M160.831 30.4628L154.365 24.0686L157.556 20.8419L160.789 24.0391C162.574 25.8048 162.593 28.6809 160.831 30.4628L160.831 30.4628Z" fill="#0666EB"/>
<path fill-rule="evenodd" clip-rule="evenodd" d="M150.82 34.2066L157.201 27.7531L160.434 30.9502L157.243 34.177C155.481 35.959 152.605 35.9722 150.82 34.2066L150.82 34.2066Z" fill="#0666EB"/>
<path fill-rule="evenodd" clip-rule="evenodd" d="M170.767 27.8346L164.386 34.2881L161.153 31.091L164.344 27.8642C166.106 26.0823 168.982 26.069 170.767 27.8346L170.767 27.8346Z" fill="#0666EB"/>
<path fill-rule="evenodd" clip-rule="evenodd" d="M185.586 6.62135L192.052 13.0155L188.862 16.2422L185.629 13.045C183.843 11.2793 183.824 8.4032 185.586 6.62135L185.586 6.62135Z" fill="#0666EB"/>
<path fill-rule="evenodd" clip-rule="evenodd" d="M185.656 5.63839L179.189 -0.755741L182.38 -3.98243L185.613 -0.785299C187.399 0.980449 187.418 3.85655 185.655 5.63839L185.656 5.63839Z" fill="#0666EB"/>
<path fill-rule="evenodd" clip-rule="evenodd" d="M175.644 9.38229L182.025 2.92873L185.258 6.12586L182.068 9.35267C180.306 11.1346 177.43 11.1478 175.644 9.38223L175.644 9.38229Z" fill="#0666EB"/>
<path fill-rule="evenodd" clip-rule="evenodd" d="M195.592 3.01024L189.21 9.46381L185.977 6.26668L189.168 3.03986C190.93 1.25792 193.806 1.24469 195.592 3.0103L195.592 3.01024Z" fill="#0666EB"/>
<path fill-rule="evenodd" clip-rule="evenodd" d="M193.862 64.5456L200.328 70.9397L197.137 74.1664L193.904 70.9693C192.119 69.2035 192.1 66.3275 193.862 64.5456L193.862 64.5456Z" fill="#0666EB"/>
<path fill-rule="evenodd" clip-rule="evenodd" d="M193.933 63.5626L187.467 57.1685L190.657 53.9418L193.89 57.139C195.676 58.9047 195.695 61.7808 193.933 63.5626L193.933 63.5626Z" fill="#0666EB"/>
<path fill-rule="evenodd" clip-rule="evenodd" d="M183.921 67.3065L190.303 60.853L193.536 64.0501L190.345 67.2769C188.583 69.0589 185.707 69.0721 183.921 67.3065L183.921 67.3065Z" fill="#0666EB"/>
<path fill-rule="evenodd" clip-rule="evenodd" d="M203.869 60.9345L197.488 67.3881L194.255 64.1909L197.445 60.9641C199.207 59.1822 202.083 59.1689 203.869 60.9346L203.869 60.9345Z" fill="#0666EB"/>
<path fill-rule="evenodd" clip-rule="evenodd" d="M218.69 39.721L225.156 46.1152L221.965 49.3418L218.732 46.1447C216.947 44.379 216.928 41.5029 218.69 39.721L218.69 39.721Z" fill="#0666EB"/>
<path fill-rule="evenodd" clip-rule="evenodd" d="M218.759 38.7381L212.293 32.3439L215.483 29.1172L218.717 32.3144C220.502 34.0801 220.521 36.9562 218.759 38.7381L218.759 38.7381Z" fill="#0666EB"/>
<path fill-rule="evenodd" clip-rule="evenodd" d="M208.747 42.4819L215.129 36.0284L218.362 39.2255L215.171 42.4523C213.409 44.2343 210.533 44.2475 208.747 42.4819L208.747 42.4819Z" fill="#0666EB"/>
<path fill-rule="evenodd" clip-rule="evenodd" d="M228.695 36.1099L222.314 42.5635L219.081 39.3663L222.272 36.1395C224.034 34.3576 226.909 34.3444 228.695 36.11L228.695 36.1099Z" fill="#0666EB"/>
<path fill-rule="evenodd" clip-rule="evenodd" d="M243.514 14.8962L249.98 21.2903L246.79 24.517L243.556 21.3199C241.771 19.5541 241.752 16.678 243.514 14.8962L243.514 14.8962Z" fill="#0666EB"/>
<path fill-rule="evenodd" clip-rule="evenodd" d="M243.583 13.9132L237.117 7.51907L240.308 4.29238L243.541 7.48951C245.326 9.25526 245.345 12.1314 243.583 13.9132L243.583 13.9132Z" fill="#0666EB"/>
<path fill-rule="evenodd" clip-rule="evenodd" d="M233.572 17.6571L239.953 11.2035L243.186 14.4007L239.995 17.6275C238.233 19.4094 235.357 19.4227 233.572 17.657L233.572 17.6571Z" fill="#0666EB"/>
<path fill-rule="evenodd" clip-rule="evenodd" d="M253.519 11.2851L247.138 17.7386L243.905 14.5415L247.096 11.3147C248.858 9.53273 251.734 9.5195 253.519 11.2851L253.519 11.2851Z" fill="#0666EB"/>
<path fill-rule="evenodd" clip-rule="evenodd" d="M226.963 97.6466L233.429 104.041L230.239 107.267L227.006 104.07C225.22 102.305 225.201 99.4285 226.963 97.6466L226.963 97.6466Z" fill="#0666EB"/>
<path fill-rule="evenodd" clip-rule="evenodd" d="M227.032 96.6637L220.566 90.2695L223.757 87.0428L226.99 90.24C228.775 92.0057 228.794 94.8818 227.032 96.6637L227.032 96.6637Z" fill="#0666EB"/>
<path fill-rule="evenodd" clip-rule="evenodd" d="M217.021 100.408L223.402 93.954L226.635 97.1511L223.445 100.378C221.682 102.16 218.807 102.173 217.021 100.407L217.021 100.408Z" fill="#0666EB"/>
<path fill-rule="evenodd" clip-rule="evenodd" d="M236.969 94.0355L230.587 100.489L227.354 97.2919L230.545 94.0651C232.307 92.2832 235.183 92.27 236.969 94.0356L236.969 94.0355Z" fill="#0666EB"/>
<path fill-rule="evenodd" clip-rule="evenodd" d="M251.787 72.822L258.254 79.2161L255.063 82.4428L251.83 79.2457C250.044 77.4799 250.025 74.6038 251.787 72.822L251.787 72.822Z" fill="#0666EB"/>
<path fill-rule="evenodd" clip-rule="evenodd" d="M251.857 71.839L245.39 65.4449L248.581 62.2182L251.814 65.4154C253.6 67.1811 253.619 70.0572 251.857 71.839L251.857 71.839Z" fill="#0666EB"/>
<path fill-rule="evenodd" clip-rule="evenodd" d="M241.845 75.5829L248.226 69.1293L251.46 72.3265L248.269 75.5533C246.507 77.3352 243.631 77.3485 241.845 75.5829L241.845 75.5829Z" fill="#0666EB"/>
<path fill-rule="evenodd" clip-rule="evenodd" d="M261.793 69.2109L255.412 75.6645L252.178 72.4673L255.369 69.2405C257.131 67.4586 260.007 67.4453 261.793 69.211L261.793 69.2109Z" fill="#0666EB"/>
<path fill-rule="evenodd" clip-rule="evenodd" d="M276.61 47.9974L283.076 54.3915L279.885 57.6182L276.652 54.4211C274.867 52.6553 274.848 49.7792 276.61 47.9974L276.61 47.9974Z" fill="#0666EB"/>
<path fill-rule="evenodd" clip-rule="evenodd" d="M276.681 47.0144L270.215 40.6203L273.405 37.3936L276.638 40.5907C278.424 42.3565 278.443 45.2326 276.681 47.0144L276.681 47.0144Z" fill="#0666EB"/>
<path fill-rule="evenodd" clip-rule="evenodd" d="M266.669 50.7583L273.051 44.3047L276.284 47.5019L273.093 50.7287C271.331 52.5106 268.455 52.5239 266.669 50.7582L266.669 50.7583Z" fill="#0666EB"/>
<path fill-rule="evenodd" clip-rule="evenodd" d="M286.617 44.3863L280.236 50.8398L277.003 47.6427L280.193 44.4159C281.955 42.634 284.831 42.6207 286.617 44.3863L286.617 44.3863Z" fill="#0666EB"/>
<path fill-rule="evenodd" clip-rule="evenodd" d="M301.438 23.1728L307.904 29.5669L304.713 32.7936L301.48 29.5965C299.695 27.8307 299.676 24.9546 301.438 23.1728L301.438 23.1728Z" fill="#0666EB"/>
<path fill-rule="evenodd" clip-rule="evenodd" d="M301.507 22.1898L295.041 15.7957L298.231 12.569L301.465 15.7662C303.25 17.5319 303.269 20.408 301.507 22.1898L301.507 22.1898Z" fill="#0666EB"/>
<path fill-rule="evenodd" clip-rule="evenodd" d="M291.496 25.9337L297.877 19.4801L301.11 22.6773L297.919 25.9041C296.157 27.686 293.281 27.6993 291.496 25.9337L291.496 25.9337Z" fill="#0666EB"/>
<path fill-rule="evenodd" clip-rule="evenodd" d="M311.443 19.5617L305.062 26.0153L301.829 22.8181L305.02 19.5913C306.782 17.8094 309.658 17.7961 311.443 19.5618L311.443 19.5617Z" fill="#0666EB"/>
<path fill-rule="evenodd" clip-rule="evenodd" d="M326.26 -1.65181L332.726 4.74232L329.536 7.96901L326.302 4.77188C324.517 3.00613 324.498 0.130033 326.26 -1.65181L326.26 -1.65181Z" fill="#0666EB"/>
<path fill-rule="evenodd" clip-rule="evenodd" d="M316.32 1.10913L322.701 -5.34444L325.934 -2.14731L322.743 1.07951C320.981 2.86145 318.105 2.87469 316.32 1.10907L316.32 1.10913Z" fill="#0666EB"/>
<path fill-rule="evenodd" clip-rule="evenodd" d="M336.267 -5.26292L329.886 1.19064L326.653 -2.00648L329.844 -5.2333C331.606 -7.01524 334.482 -7.02848 336.267 -5.26286L336.267 -5.26292Z" fill="#0666EB"/>
<path fill-rule="evenodd" clip-rule="evenodd" d="M260.063 130.747L266.529 137.141L263.338 140.368L260.105 137.17C258.32 135.405 258.301 132.529 260.063 130.747L260.063 130.747Z" fill="#0666EB"/>
<path fill-rule="evenodd" clip-rule="evenodd" d="M260.132 129.764L253.666 123.37L256.856 120.143L260.09 123.34C261.875 125.106 261.894 127.982 260.132 129.764L260.132 129.764Z" fill="#0666EB"/>
<path fill-rule="evenodd" clip-rule="evenodd" d="M250.121 133.508L256.502 127.054L259.735 130.251L256.544 133.478C254.782 135.26 251.906 135.273 250.121 133.508L250.121 133.508Z" fill="#0666EB"/>
<path fill-rule="evenodd" clip-rule="evenodd" d="M270.068 127.136L263.687 133.589L260.454 130.392L263.645 127.165C265.407 125.383 268.283 125.37 270.068 127.136L270.068 127.136Z" fill="#0666EB"/>
<path fill-rule="evenodd" clip-rule="evenodd" d="M284.887 105.922L291.353 112.316L288.163 115.543L284.929 112.346C283.144 110.58 283.125 107.704 284.887 105.922L284.887 105.922Z" fill="#0666EB"/>
<path fill-rule="evenodd" clip-rule="evenodd" d="M284.956 104.939L278.49 98.5452L281.681 95.3185L284.914 98.5157C286.699 100.281 286.718 103.158 284.956 104.939L284.956 104.939Z" fill="#0666EB"/>
<path fill-rule="evenodd" clip-rule="evenodd" d="M274.945 108.683L281.326 102.23L284.559 105.427L281.368 108.654C279.606 110.436 276.73 110.449 274.945 108.683L274.945 108.683Z" fill="#0666EB"/>
<path fill-rule="evenodd" clip-rule="evenodd" d="M294.892 102.311L288.511 108.765L285.278 105.568L288.469 102.341C290.231 100.559 293.107 100.546 294.892 102.311L294.892 102.311Z" fill="#0666EB"/>
<path fill-rule="evenodd" clip-rule="evenodd" d="M309.709 81.0977L316.176 87.4918L312.985 90.7185L309.752 87.5214C307.966 85.7556 307.947 82.8795 309.709 81.0977L309.709 81.0977Z" fill="#0666EB"/>
<path fill-rule="evenodd" clip-rule="evenodd" d="M309.781 80.1147L303.314 73.7206L306.505 70.4939L309.738 73.6911C311.524 75.4568 311.543 78.3329 309.78 80.1147L309.781 80.1147Z" fill="#0666EB"/>
<path fill-rule="evenodd" clip-rule="evenodd" d="M299.769 83.8586L306.15 77.405L309.383 80.6022L306.193 83.829C304.431 85.6109 301.555 85.6242 299.769 83.8585L299.769 83.8586Z" fill="#0666EB"/>
<path fill-rule="evenodd" clip-rule="evenodd" d="M319.717 77.4866L313.335 83.9402L310.102 80.743L313.293 77.5162C315.055 75.7343 317.931 75.721 319.717 77.4867L319.717 77.4866Z" fill="#0666EB"/>
<path fill-rule="evenodd" clip-rule="evenodd" d="M334.537 56.2731L341.004 62.6672L337.813 65.8939L334.58 62.6968C332.794 60.9311 332.775 58.055 334.537 56.2731L334.537 56.2731Z" fill="#0666EB"/>
<path fill-rule="evenodd" clip-rule="evenodd" d="M334.607 55.2902L328.14 48.896L331.331 45.6693L334.564 48.8665C336.35 50.6322 336.369 53.5083 334.607 55.2902L334.607 55.2902Z" fill="#0666EB"/>
<path fill-rule="evenodd" clip-rule="evenodd" d="M324.595 59.034L330.976 52.5805L334.21 55.7776L331.019 59.0044C329.257 60.7863 326.381 60.7996 324.595 59.034L324.595 59.034Z" fill="#0666EB"/>
<path fill-rule="evenodd" clip-rule="evenodd" d="M344.543 52.662L338.162 59.1156L334.928 55.9184L338.119 52.6916C339.881 50.9097 342.757 50.8965 344.543 52.6621L344.543 52.662Z" fill="#0666EB"/>
<path fill-rule="evenodd" clip-rule="evenodd" d="M359.36 31.4485L365.826 37.8426L362.635 41.0693L359.402 37.8722C357.617 36.1064 357.598 33.2303 359.36 31.4485L359.36 31.4485Z" fill="#0666EB"/>
<path fill-rule="evenodd" clip-rule="evenodd" d="M359.431 30.4655L352.965 24.0714L356.155 20.8447L359.388 24.0418C361.174 25.8076 361.193 28.6837 359.431 30.4655L359.431 30.4655Z" fill="#0666EB"/>
<path fill-rule="evenodd" clip-rule="evenodd" d="M349.419 34.2094L355.801 27.7558L359.034 30.953L355.843 34.1798C354.081 35.9617 351.205 35.975 349.419 34.2093L349.419 34.2094Z" fill="#0666EB"/>
<path fill-rule="evenodd" clip-rule="evenodd" d="M369.367 27.8374L362.986 34.291L359.753 31.0938L362.943 27.867C364.705 26.0851 367.581 26.0718 369.367 27.8375L369.367 27.8374Z" fill="#0666EB"/>
<path fill-rule="evenodd" clip-rule="evenodd" d="M384.186 6.62388L390.652 13.018L387.461 16.2447L384.228 13.0476C382.443 11.2818 382.424 8.40573 384.186 6.62388L384.186 6.62388Z" fill="#0666EB"/>
<path fill-rule="evenodd" clip-rule="evenodd" d="M384.255 5.64092L377.789 -0.753208L380.979 -3.9799L384.213 -0.782766C385.998 0.982982 386.017 3.85908 384.255 5.64092L384.255 5.64092Z" fill="#0666EB"/>
<path fill-rule="evenodd" clip-rule="evenodd" d="M374.244 9.38483L380.625 2.93126L383.858 6.12839L380.667 9.35521C378.905 11.1371 376.029 11.1504 374.244 9.38476L374.244 9.38483Z" fill="#0666EB"/>
<path fill-rule="evenodd" clip-rule="evenodd" d="M394.191 3.01277L387.81 9.46634L384.577 6.26921L387.768 3.04239C389.53 1.26045 392.406 1.24722 394.191 3.01284L394.191 3.01277Z" fill="#0666EB"/>
<path fill-rule="evenodd" clip-rule="evenodd" d="M293.164 163.847L299.631 170.241L296.44 173.468L293.207 170.271C291.421 168.505 291.402 165.629 293.164 163.847L293.164 163.847Z" fill="#0666EB"/>
<path fill-rule="evenodd" clip-rule="evenodd" d="M293.234 162.864L286.767 156.47L289.958 153.243L293.191 156.441C294.977 158.206 294.996 161.082 293.234 162.864L293.234 162.864Z" fill="#0666EB"/>
<path fill-rule="evenodd" clip-rule="evenodd" d="M283.222 166.608L289.603 160.155L292.837 163.352L289.646 166.579C287.884 168.361 285.008 168.374 283.222 166.608L283.222 166.608Z" fill="#0666EB"/>
<path fill-rule="evenodd" clip-rule="evenodd" d="M303.17 160.236L296.789 166.69L293.555 163.493L296.746 160.266C298.508 158.484 301.384 158.471 303.17 160.236L303.17 160.236Z" fill="#0666EB"/>
<path fill-rule="evenodd" clip-rule="evenodd" d="M317.988 139.023L324.455 145.417L321.264 148.643L318.031 145.446C316.245 143.681 316.226 140.805 317.989 139.023L317.988 139.023Z" fill="#0666EB"/>
<path fill-rule="evenodd" clip-rule="evenodd" d="M318.058 138.04L311.592 131.646L314.782 128.419L318.015 131.616C319.801 133.382 319.82 136.258 318.058 138.04L318.058 138.04Z" fill="#0666EB"/>
<path fill-rule="evenodd" clip-rule="evenodd" d="M308.046 141.784L314.428 135.33L317.661 138.527L314.47 141.754C312.708 143.536 309.832 143.549 308.046 141.784L308.046 141.784Z" fill="#0666EB"/>
<path fill-rule="evenodd" clip-rule="evenodd" d="M327.994 135.412L321.613 141.865L318.38 138.668L321.57 135.441C323.332 133.659 326.208 133.646 327.994 135.412L327.994 135.412Z" fill="#0666EB"/>
<path fill-rule="evenodd" clip-rule="evenodd" d="M342.813 114.197L349.279 120.592L346.088 123.818L342.855 120.621C341.07 118.855 341.051 115.979 342.813 114.197L342.813 114.197Z" fill="#0666EB"/>
<path fill-rule="evenodd" clip-rule="evenodd" d="M342.882 113.214L336.416 106.82L339.606 103.594L342.84 106.791C344.625 108.556 344.644 111.433 342.882 113.214L342.882 113.214Z" fill="#0666EB"/>
<path fill-rule="evenodd" clip-rule="evenodd" d="M332.871 116.958L339.252 110.505L342.485 113.702L339.294 116.929C337.532 118.711 334.656 118.724 332.871 116.958L332.871 116.958Z" fill="#0666EB"/>
<path fill-rule="evenodd" clip-rule="evenodd" d="M352.818 110.586L346.437 117.04L343.204 113.843L346.395 110.616C348.157 108.834 351.033 108.821 352.818 110.586L352.818 110.586Z" fill="#0666EB"/>
<path fill-rule="evenodd" clip-rule="evenodd" d="M367.639 89.3728L374.105 95.7669L370.915 98.9936L367.681 95.7965C365.896 94.0307 365.877 91.1546 367.639 89.3728L367.639 89.3728Z" fill="#0666EB"/>
<path fill-rule="evenodd" clip-rule="evenodd" d="M367.708 88.3898L361.242 81.9957L364.433 78.769L367.666 81.9661C369.451 83.7319 369.47 86.608 367.708 88.3898L367.708 88.3898Z" fill="#0666EB"/>
<path fill-rule="evenodd" clip-rule="evenodd" d="M357.697 92.1337L364.078 85.6801L367.311 88.8773L364.12 92.1041C362.358 93.886 359.482 93.8993 357.697 92.1336L357.697 92.1337Z" fill="#0666EB"/>
<path fill-rule="evenodd" clip-rule="evenodd" d="M377.644 85.7617L371.263 92.2152L368.03 89.0181L371.221 85.7913C372.983 84.0094 375.859 83.9961 377.644 85.7617L377.644 85.7617Z" fill="#0666EB"/>
<path fill-rule="evenodd" clip-rule="evenodd" d="M392.463 64.5482L398.929 70.9423L395.739 74.169L392.506 70.9719C390.72 69.2061 390.701 66.33 392.463 64.5482L392.463 64.5482Z" fill="#0666EB"/>
<path fill-rule="evenodd" clip-rule="evenodd" d="M392.532 63.5652L386.066 57.1711L389.257 53.9444L392.49 57.1415C394.275 58.9073 394.294 61.7834 392.532 63.5652L392.532 63.5652Z" fill="#0666EB"/>
<path fill-rule="evenodd" clip-rule="evenodd" d="M382.521 67.3091L388.902 60.8555L392.135 64.0526L388.945 67.2795C387.182 69.0614 384.307 69.0746 382.521 67.309L382.521 67.3091Z" fill="#0666EB"/>
<path fill-rule="evenodd" clip-rule="evenodd" d="M402.469 60.9371L396.087 67.3906L392.854 64.1935L396.045 60.9667C397.807 59.1847 400.683 59.1715 402.469 60.9371L402.469 60.9371Z" fill="#0666EB"/>
<path fill-rule="evenodd" clip-rule="evenodd" d="M417.287 39.7233L423.754 46.1174L420.563 49.3441L417.33 46.147C415.544 44.3812 415.525 41.5051 417.287 39.7233L417.287 39.7233Z" fill="#0666EB"/>
<path fill-rule="evenodd" clip-rule="evenodd" d="M417.357 38.7403L410.89 32.3462L414.081 29.1195L417.314 32.3166C419.1 34.0824 419.119 36.9585 417.357 38.7403L417.357 38.7403Z" fill="#0666EB"/>
<path fill-rule="evenodd" clip-rule="evenodd" d="M407.345 42.4842L413.726 36.0307L416.96 39.2278L413.769 42.4546C412.007 44.2365 409.131 44.2498 407.345 42.4842L407.345 42.4842Z" fill="#0666EB"/>
<path fill-rule="evenodd" clip-rule="evenodd" d="M427.293 36.1122L420.912 42.5657L417.678 39.3686L420.869 36.1418C422.631 34.3598 425.507 34.3466 427.293 36.1122L427.293 36.1122Z" fill="#0666EB"/>
<path fill-rule="evenodd" clip-rule="evenodd" d="M326.262 196.948L332.728 203.342L329.538 206.568L326.304 203.371C324.519 201.606 324.5 198.729 326.262 196.948L326.262 196.948Z" fill="#0666EB"/>
<path fill-rule="evenodd" clip-rule="evenodd" d="M326.333 195.965L319.867 189.571L323.058 186.344L326.291 189.541C328.076 191.307 328.095 194.183 326.333 195.965L326.333 195.965Z" fill="#0666EB"/>
<path fill-rule="evenodd" clip-rule="evenodd" d="M316.322 199.709L322.703 193.255L325.936 196.452L322.745 199.679C320.983 201.461 318.107 201.474 316.322 199.708L316.322 199.709Z" fill="#0666EB"/>
<path fill-rule="evenodd" clip-rule="evenodd" d="M336.269 193.337L329.888 199.79L326.655 196.593L329.846 193.366C331.608 191.584 334.484 191.571 336.269 193.337L336.269 193.337Z" fill="#0666EB"/>
<path fill-rule="evenodd" clip-rule="evenodd" d="M351.088 172.123L357.554 178.517L354.364 181.744L351.131 178.547C349.345 176.781 349.326 173.905 351.088 172.123L351.088 172.123Z" fill="#0666EB"/>
<path fill-rule="evenodd" clip-rule="evenodd" d="M351.157 171.14L344.691 164.746L347.882 161.519L351.115 164.716C352.9 166.482 352.919 169.358 351.157 171.14L351.157 171.14Z" fill="#0666EB"/>
<path fill-rule="evenodd" clip-rule="evenodd" d="M341.146 174.884L347.527 168.43L350.76 171.628L347.57 174.854C345.807 176.636 342.932 176.649 341.146 174.884L341.146 174.884Z" fill="#0666EB"/>
<path fill-rule="evenodd" clip-rule="evenodd" d="M361.094 168.512L354.712 174.965L351.479 171.768L354.67 168.542C356.432 166.76 359.308 166.746 361.094 168.512L361.094 168.512Z" fill="#0666EB"/>
<path fill-rule="evenodd" clip-rule="evenodd" d="M375.912 147.298L382.379 153.693L379.188 156.919L375.955 153.722C374.169 151.956 374.15 149.08 375.912 147.298L375.912 147.298Z" fill="#0666EB"/>
<path fill-rule="evenodd" clip-rule="evenodd" d="M375.982 146.315L369.515 139.921L372.706 136.695L375.939 139.892C377.725 141.657 377.744 144.534 375.982 146.315L375.982 146.315Z" fill="#0666EB"/>
<path fill-rule="evenodd" clip-rule="evenodd" d="M365.97 150.059L372.351 143.606L375.585 146.803L372.394 150.03C370.632 151.812 367.756 151.825 365.97 150.059L365.97 150.059Z" fill="#0666EB"/>
<path fill-rule="evenodd" clip-rule="evenodd" d="M385.918 143.687L379.537 150.141L376.303 146.944L379.494 143.717C381.256 141.935 384.132 141.922 385.918 143.687L385.918 143.687Z" fill="#0666EB"/>
<path fill-rule="evenodd" clip-rule="evenodd" d="M400.737 122.473L407.203 128.867L404.012 132.094L400.779 128.897C398.994 127.131 398.975 124.255 400.737 122.473L400.737 122.473Z" fill="#0666EB"/>
<path fill-rule="evenodd" clip-rule="evenodd" d="M400.808 121.49L394.342 115.096L397.532 111.869L400.765 115.066C402.551 116.832 402.57 119.708 400.808 121.49L400.808 121.49Z" fill="#0666EB"/>
<path fill-rule="evenodd" clip-rule="evenodd" d="M390.796 125.234L397.178 118.78L400.411 121.978L397.22 125.204C395.458 126.986 392.582 127 390.796 125.234L390.796 125.234Z" fill="#0666EB"/>
<path fill-rule="evenodd" clip-rule="evenodd" d="M410.744 118.862L404.363 125.316L401.13 122.118L404.32 118.892C406.082 117.11 408.958 117.096 410.744 118.862L410.744 118.862Z" fill="#0666EB"/>
<path fill-rule="evenodd" clip-rule="evenodd" d="M425.563 97.6485L432.029 104.043L428.838 107.269L425.605 104.072C423.82 102.306 423.801 99.4304 425.563 97.6485L425.563 97.6485Z" fill="#0666EB"/>
<path fill-rule="evenodd" clip-rule="evenodd" d="M425.632 96.6656L419.166 90.2714L422.356 87.0447L425.59 90.2419C427.375 92.0076 427.394 94.8837 425.632 96.6656L425.632 96.6656Z" fill="#0666EB"/>
<path fill-rule="evenodd" clip-rule="evenodd" d="M415.621 100.409L422.002 93.9559L425.235 97.153L422.044 100.38C420.282 102.162 417.406 102.175 415.621 100.409L415.621 100.409Z" fill="#0666EB"/>
<path fill-rule="evenodd" clip-rule="evenodd" d="M435.568 94.0374L429.187 100.491L425.954 97.2938L429.145 94.067C430.907 92.2851 433.783 92.2718 435.568 94.0375L435.568 94.0374Z" fill="#0666EB"/>
<path fill-rule="evenodd" clip-rule="evenodd" d="M450.387 72.8239L456.853 79.218L453.663 82.4447L450.429 79.2476C448.644 77.4818 448.625 74.6057 450.387 72.8239L450.387 72.8239Z" fill="#0666EB"/>
<path fill-rule="evenodd" clip-rule="evenodd" d="M450.456 71.8409L443.99 65.4468L447.181 62.2201L450.414 65.4172C452.199 67.183 452.218 70.0591 450.456 71.8409L450.456 71.8409Z" fill="#0666EB"/>
<path fill-rule="evenodd" clip-rule="evenodd" d="M440.445 75.5848L446.826 69.1312L450.059 72.3284L446.868 75.5552C445.106 77.3371 442.23 77.3504 440.445 75.5847L440.445 75.5848Z" fill="#0666EB"/>
<path fill-rule="evenodd" clip-rule="evenodd" d="M460.392 69.2128L454.011 75.6664L450.778 72.4692L453.969 69.2424C455.731 67.4605 458.607 67.4472 460.392 69.2128L460.392 69.2128Z" fill="#0666EB"/>
<path fill-rule="evenodd" clip-rule="evenodd" d="M359.363 230.048L365.83 236.442L362.639 239.669L359.406 236.472C357.62 234.706 357.601 231.83 359.364 230.048L359.363 230.048Z" fill="#0666EB"/>
<path fill-rule="evenodd" clip-rule="evenodd" d="M359.435 229.065L352.968 222.671L356.159 219.444L359.392 222.641C361.178 224.407 361.197 227.283 359.435 229.065L359.435 229.065Z" fill="#0666EB"/>
<path fill-rule="evenodd" clip-rule="evenodd" d="M349.423 232.809L355.804 226.355L359.038 229.552L355.847 232.779C354.085 234.561 351.209 234.574 349.423 232.809L349.423 232.809Z" fill="#0666EB"/>
<path fill-rule="evenodd" clip-rule="evenodd" d="M369.371 226.437L362.99 232.89L359.757 229.693L362.947 226.466C364.709 224.685 367.585 224.671 369.371 226.437L369.371 226.437Z" fill="#0666EB"/>
<path fill-rule="evenodd" clip-rule="evenodd" d="M384.19 205.223L390.656 211.618L387.465 214.844L384.232 211.647C382.447 209.881 382.428 207.005 384.19 205.223L384.19 205.223Z" fill="#0666EB"/>
<path fill-rule="evenodd" clip-rule="evenodd" d="M384.259 204.24L377.793 197.846L380.983 194.62L384.217 197.817C386.002 199.582 386.021 202.459 384.259 204.24L384.259 204.24Z" fill="#0666EB"/>
<path fill-rule="evenodd" clip-rule="evenodd" d="M374.247 207.984L380.629 201.531L383.862 204.728L380.671 207.955C378.909 209.737 376.033 209.75 374.247 207.984L374.247 207.984Z" fill="#0666EB"/>
<path fill-rule="evenodd" clip-rule="evenodd" d="M394.195 201.612L387.814 208.066L384.581 204.869L387.772 201.642C389.534 199.86 392.409 199.847 394.195 201.612L394.195 201.612Z" fill="#0666EB"/>
<path fill-rule="evenodd" clip-rule="evenodd" d="M409.012 180.398L415.478 186.792L412.288 190.019L409.054 186.822C407.269 185.056 407.25 182.18 409.012 180.398L409.012 180.398Z" fill="#0666EB"/>
<path fill-rule="evenodd" clip-rule="evenodd" d="M409.083 179.415L402.617 173.021L405.808 169.794L409.041 172.991C410.826 174.757 410.845 177.633 409.083 179.415L409.083 179.415Z" fill="#0666EB"/>
<path fill-rule="evenodd" clip-rule="evenodd" d="M399.072 183.159L405.453 176.705L408.686 179.903L405.495 183.129C403.733 184.911 400.857 184.925 399.072 183.159L399.072 183.159Z" fill="#0666EB"/>
<path fill-rule="evenodd" clip-rule="evenodd" d="M419.019 176.787L412.638 183.241L409.405 180.043L412.596 176.817C414.358 175.035 417.234 175.021 419.019 176.787L419.019 176.787Z" fill="#0666EB"/>
<path fill-rule="evenodd" clip-rule="evenodd" d="M433.84 155.573L440.306 161.968L437.116 165.194L433.882 161.997C432.097 160.231 432.078 157.355 433.84 155.573L433.84 155.573Z" fill="#0666EB"/>
<path fill-rule="evenodd" clip-rule="evenodd" d="M433.909 154.591L427.443 148.196L430.634 144.97L433.867 148.167C435.652 149.933 435.671 152.809 433.909 154.591L433.909 154.591Z" fill="#0666EB"/>
<path fill-rule="evenodd" clip-rule="evenodd" d="M423.898 158.334L430.279 151.881L433.512 155.078L430.321 158.305C428.559 160.087 425.684 160.1 423.898 158.334L423.898 158.334Z" fill="#0666EB"/>
<path fill-rule="evenodd" clip-rule="evenodd" d="M443.846 151.962L437.464 158.416L434.231 155.219L437.422 151.992C439.184 150.21 442.06 150.197 443.846 151.962L443.846 151.962Z" fill="#0666EB"/>
<path fill-rule="evenodd" clip-rule="evenodd" d="M458.664 130.749L465.131 137.143L461.94 140.37L458.707 137.173C456.921 135.407 456.902 132.531 458.664 130.749L458.664 130.749Z" fill="#0666EB"/>
<path fill-rule="evenodd" clip-rule="evenodd" d="M458.734 129.766L452.267 123.372L455.458 120.145L458.691 123.342C460.477 125.108 460.496 127.984 458.734 129.766L458.734 129.766Z" fill="#0666EB"/>
<path fill-rule="evenodd" clip-rule="evenodd" d="M448.722 133.51L455.103 127.056L458.337 130.253L455.146 133.48C453.384 135.262 450.508 135.275 448.722 133.51L448.722 133.51Z" fill="#0666EB"/>
<path fill-rule="evenodd" clip-rule="evenodd" d="M468.67 127.138L462.289 133.591L459.055 130.394L462.246 127.167C464.008 125.385 466.884 125.372 468.67 127.138L468.67 127.138Z" fill="#0666EB"/>
<path fill-rule="evenodd" clip-rule="evenodd" d="M483.488 105.924L489.955 112.318L486.764 115.545L483.531 112.348C481.745 110.582 481.726 107.706 483.489 105.924L483.488 105.924Z" fill="#0666EB"/>
<path fill-rule="evenodd" clip-rule="evenodd" d="M483.558 104.941L477.092 98.5471L480.282 95.3205L483.515 98.5176C485.301 100.283 485.32 103.159 483.558 104.941L483.558 104.941Z" fill="#0666EB"/>
<path fill-rule="evenodd" clip-rule="evenodd" d="M473.546 108.685L479.928 102.232L483.161 105.429L479.97 108.656C478.208 110.437 475.332 110.451 473.546 108.685L473.546 108.685Z" fill="#0666EB"/>
<path fill-rule="evenodd" clip-rule="evenodd" d="M493.494 102.313L487.113 108.767L483.88 105.57L487.07 102.343C488.832 100.561 491.708 100.548 493.494 102.313L493.494 102.313Z" fill="#0666EB"/>
<path fill-rule="evenodd" clip-rule="evenodd" d="M439.164 19.8473L445.631 26.2414L442.44 29.4681L439.207 26.271C437.421 24.5052 437.402 21.6291 439.164 19.8473L439.164 19.8473Z" fill="#0666EB"/>
<path fill-rule="evenodd" clip-rule="evenodd" d="M439.234 18.8643L432.767 12.4702L435.958 9.24349L439.191 12.4406C440.977 14.2064 440.996 17.0825 439.234 18.8643L439.234 18.8643Z" fill="#0666EB"/>
<path fill-rule="evenodd" clip-rule="evenodd" d="M429.222 22.6082L435.603 16.1546L438.837 19.3517L435.646 22.5786C433.884 24.3605 431.008 24.3737 429.222 22.6081L429.222 22.6082Z" fill="#0666EB"/>
<path fill-rule="evenodd" clip-rule="evenodd" d="M449.17 16.2362L442.789 22.6897L439.555 19.4926L442.746 16.2658C444.508 14.4838 447.384 14.4706 449.17 16.2362L449.17 16.2362Z" fill="#0666EB"/>
<path fill-rule="evenodd" clip-rule="evenodd" d="M463.988 -4.97734L470.455 1.41679L467.264 4.64348L464.031 1.44635C462.245 -0.3194 462.226 -3.1955 463.989 -4.97734L463.988 -4.97734Z" fill="#0666EB"/>
<path fill-rule="evenodd" clip-rule="evenodd" d="M472.262 52.9476L478.728 59.3418L475.538 62.5685L472.304 59.3713C470.519 57.6056 470.5 54.7295 472.262 52.9476L472.262 52.9476Z" fill="#0666EB"/>
<path fill-rule="evenodd" clip-rule="evenodd" d="M472.333 51.9647L465.867 45.5705L469.058 42.3438L472.291 45.541C474.076 47.3067 474.095 50.1828 472.333 51.9647L472.333 51.9647Z" fill="#0666EB"/>
<path fill-rule="evenodd" clip-rule="evenodd" d="M462.322 55.7085L468.703 49.255L471.936 52.4521L468.745 55.6789C466.983 57.4608 464.107 57.4741 462.322 55.7085L462.322 55.7085Z" fill="#0666EB"/>
<path fill-rule="evenodd" clip-rule="evenodd" d="M482.269 49.3365L475.888 55.7901L472.655 52.5929L475.846 49.3661C477.608 47.5842 480.484 47.5709 482.269 49.3366L482.269 49.3365Z" fill="#0666EB"/>
<path fill-rule="evenodd" clip-rule="evenodd" d="M497.088 28.123L503.554 34.5171L500.364 37.7438L497.131 34.5467C495.345 32.7809 495.326 29.9048 497.088 28.123L497.088 28.123Z" fill="#0666EB"/>
<path fill-rule="evenodd" clip-rule="evenodd" d="M497.157 27.14L490.691 20.7459L493.882 17.5192L497.115 20.7163C498.9 22.4821 498.919 25.3582 497.157 27.14L497.157 27.14Z" fill="#0666EB"/>
<path fill-rule="evenodd" clip-rule="evenodd" d="M487.146 30.8839L493.527 24.4304L496.76 27.6275L493.57 30.8543C491.807 32.6363 488.932 32.6495 487.146 30.8839L487.146 30.8839Z" fill="#0666EB"/>
<path fill-rule="evenodd" clip-rule="evenodd" d="M507.094 24.5119L500.712 30.9655L497.479 27.7683L500.67 24.5415C502.432 22.7596 505.308 22.7463 507.094 24.512L507.094 24.5119Z" fill="#0666EB"/>
<path fill-rule="evenodd" clip-rule="evenodd" d="M505.435 85.065L498.968 78.6709L502.159 75.4442L505.392 78.6413C507.178 80.4071 507.197 83.2832 505.435 85.065L505.435 85.065Z" fill="#0666EB"/>
<path fill-rule="evenodd" clip-rule="evenodd" d="M495.423 88.8089L501.804 82.3553L505.038 85.5525L501.847 88.7793C500.085 90.5612 497.209 90.5745 495.423 88.8088L495.423 88.8089Z" fill="#0666EB"/>
<path fill-rule="evenodd" clip-rule="evenodd" d="M390.662 262.345L397.129 268.739L393.938 271.966L390.705 268.769C388.919 267.003 388.9 264.127 390.662 262.345L390.662 262.345Z" fill="#0666EB"/>
<path fill-rule="evenodd" clip-rule="evenodd" d="M390.732 261.362L384.265 254.968L387.456 251.741L390.689 254.938C392.475 256.704 392.494 259.58 390.732 261.362L390.732 261.362Z" fill="#0666EB"/>
<path fill-rule="evenodd" clip-rule="evenodd" d="M380.72 265.106L387.101 258.652L390.335 261.849L387.144 265.076C385.382 266.858 382.506 266.871 380.72 265.106L380.72 265.106Z" fill="#0666EB"/>
<path fill-rule="evenodd" clip-rule="evenodd" d="M400.668 258.734L394.287 265.187L391.053 261.99L394.244 258.763C396.006 256.982 398.882 256.968 400.668 258.734L400.668 258.734Z" fill="#0666EB"/>
<path fill-rule="evenodd" clip-rule="evenodd" d="M415.488 237.52L421.955 243.915L418.764 247.141L415.531 243.944C413.745 242.178 413.726 239.302 415.489 237.52L415.488 237.52Z" fill="#0666EB"/>
<path fill-rule="evenodd" clip-rule="evenodd" d="M415.558 236.537L409.092 230.143L412.282 226.917L415.515 230.114C417.301 231.879 417.32 234.756 415.558 236.537L415.558 236.537Z" fill="#0666EB"/>
<path fill-rule="evenodd" clip-rule="evenodd" d="M405.546 240.281L411.928 233.828L415.161 237.025L411.97 240.252C410.208 242.034 407.332 242.047 405.546 240.281L405.546 240.281Z" fill="#0666EB"/>
<path fill-rule="evenodd" clip-rule="evenodd" d="M425.494 233.909L419.113 240.363L415.88 237.166L419.07 233.939C420.832 232.157 423.708 232.144 425.494 233.909L425.494 233.909Z" fill="#0666EB"/>
<path fill-rule="evenodd" clip-rule="evenodd" d="M440.313 212.696L446.779 219.09L443.588 222.317L440.355 219.119C438.57 217.354 438.551 214.478 440.313 212.696L440.313 212.696Z" fill="#0666EB"/>
<path fill-rule="evenodd" clip-rule="evenodd" d="M440.382 211.713L433.916 205.319L437.106 202.092L440.34 205.289C442.125 207.055 442.144 209.931 440.382 211.713L440.382 211.713Z" fill="#0666EB"/>
<path fill-rule="evenodd" clip-rule="evenodd" d="M430.371 215.457L436.752 209.003L439.985 212.2L436.794 215.427C435.032 217.209 432.156 217.222 430.371 215.457L430.371 215.457Z" fill="#0666EB"/>
<path fill-rule="evenodd" clip-rule="evenodd" d="M450.318 209.085L443.937 215.538L440.704 212.341L443.895 209.114C445.657 207.332 448.533 207.319 450.318 209.085L450.318 209.085Z" fill="#0666EB"/>
<path fill-rule="evenodd" clip-rule="evenodd" d="M465.137 187.871L471.603 194.265L468.413 197.492L465.179 194.295C463.394 192.529 463.375 189.653 465.137 187.871L465.137 187.871Z" fill="#0666EB"/>
<path fill-rule="evenodd" clip-rule="evenodd" d="M465.206 186.888L458.74 180.494L461.931 177.267L465.164 180.464C466.949 182.23 466.968 185.106 465.206 186.888L465.206 186.888Z" fill="#0666EB"/>
<path fill-rule="evenodd" clip-rule="evenodd" d="M455.195 190.632L461.576 184.178L464.809 187.376L461.618 190.602C459.856 192.384 456.98 192.398 455.195 190.632L455.195 190.632Z" fill="#0666EB"/>
<path fill-rule="evenodd" clip-rule="evenodd" d="M475.142 184.26L468.761 190.714L465.528 187.516L468.719 184.29C470.481 182.508 473.357 182.494 475.142 184.26L475.142 184.26Z" fill="#0666EB"/>
<path fill-rule="evenodd" clip-rule="evenodd" d="M489.961 163.047L496.427 169.441L493.237 172.667L490.004 169.47C488.218 167.704 488.199 164.828 489.961 163.047L489.961 163.047Z" fill="#0666EB"/>
<path fill-rule="evenodd" clip-rule="evenodd" d="M490.031 162.064L483.564 155.669L486.755 152.443L489.988 155.64C491.774 157.406 491.793 160.282 490.03 162.064L490.031 162.064Z" fill="#0666EB"/>
<path fill-rule="evenodd" clip-rule="evenodd" d="M480.019 165.807L486.4 159.354L489.633 162.551L486.443 165.778C484.681 167.56 481.805 167.573 480.019 165.807L480.019 165.807Z" fill="#0666EB"/>
<path fill-rule="evenodd" clip-rule="evenodd" d="M499.967 159.435L493.585 165.889L490.352 162.692L493.543 159.465C495.305 157.683 498.181 157.67 499.967 159.435L499.967 159.435Z" fill="#0666EB"/>
<path fill-rule="evenodd" clip-rule="evenodd" d="M423.831 294.463L417.365 288.069L420.556 284.842L423.789 288.039C425.574 289.805 425.593 292.681 423.831 294.463L423.831 294.463Z" fill="#0666EB"/>
<path fill-rule="evenodd" clip-rule="evenodd" d="M448.586 270.621L455.052 277.016L451.862 280.242L448.629 277.045C446.843 275.279 446.824 272.403 448.586 270.621L448.586 270.621Z" fill="#0666EB"/>
<path fill-rule="evenodd" clip-rule="evenodd" d="M448.656 269.638L442.189 263.244L445.38 260.018L448.613 263.215C450.399 264.98 450.418 267.857 448.655 269.638L448.656 269.638Z" fill="#0666EB"/>
<path fill-rule="evenodd" clip-rule="evenodd" d="M438.644 273.382L445.025 266.929L448.258 270.126L445.068 273.353C443.306 275.135 440.43 275.148 438.644 273.382L438.644 273.382Z" fill="#0666EB"/>
<path fill-rule="evenodd" clip-rule="evenodd" d="M458.592 267.01L452.21 273.464L448.977 270.267L452.168 267.04C453.93 265.258 456.806 265.245 458.592 267.01L458.592 267.01Z" fill="#0666EB"/>
<path fill-rule="evenodd" clip-rule="evenodd" d="M473.41 245.797L479.877 252.191L476.686 255.418L473.453 252.22C471.667 250.455 471.648 247.579 473.41 245.797L473.41 245.797Z" fill="#0666EB"/>
<path fill-rule="evenodd" clip-rule="evenodd" d="M473.48 244.814L467.013 238.42L470.204 235.193L473.437 238.39C475.223 240.156 475.242 243.032 473.48 244.814L473.48 244.814Z" fill="#0666EB"/>
<path fill-rule="evenodd" clip-rule="evenodd" d="M463.468 248.558L469.849 242.104L473.083 245.301L469.892 248.528C468.13 250.31 465.254 250.323 463.468 248.558L463.468 248.558Z" fill="#0666EB"/>
<path fill-rule="evenodd" clip-rule="evenodd" d="M483.416 242.186L477.035 248.639L473.801 245.442L476.992 242.215C478.754 240.433 481.63 240.42 483.416 242.186L483.416 242.186Z" fill="#0666EB"/>
<path fill-rule="evenodd" clip-rule="evenodd" d="M498.237 220.972L504.703 227.366L501.512 230.593L498.279 227.396C496.494 225.63 496.475 222.754 498.237 220.972L498.237 220.972Z" fill="#0666EB"/>
<path fill-rule="evenodd" clip-rule="evenodd" d="M498.306 219.989L491.84 213.595L495.03 210.368L498.263 213.565C500.049 215.331 500.068 218.207 498.306 219.989L498.306 219.989Z" fill="#0666EB"/>
<path fill-rule="evenodd" clip-rule="evenodd" d="M488.294 223.733L494.676 217.279L497.909 220.477L494.718 223.703C492.956 225.485 490.08 225.499 488.294 223.733L488.294 223.733Z" fill="#0666EB"/>
<path fill-rule="evenodd" clip-rule="evenodd" d="M508.242 217.361L501.861 223.815L498.628 220.617L501.818 217.391C503.58 215.609 506.456 215.595 508.242 217.361L508.242 217.361Z" fill="#0666EB"/>
<path fill-rule="evenodd" clip-rule="evenodd" d="M496.572 281.657L502.953 275.204L506.186 278.401L502.995 281.628C501.233 283.409 498.357 283.423 496.572 281.657L496.572 281.657Z" fill="#0666EB"/>
</g>
</g>
<path fill-rule="evenodd" clip-rule="evenodd" d="M34.1682 36.3308L34.2206 45.6557L29.5675 45.6818L29.5413 41.0193C29.527 38.4444 31.5986 36.3452 34.1682 36.3309L34.1682 36.3308Z" fill="#0666EB"/>
<path fill-rule="evenodd" clip-rule="evenodd" d="M34.9302 35.6691L34.8779 26.3443L39.531 26.3181L39.5571 30.9807C39.5714 33.5556 37.4998 35.6547 34.9302 35.6691L34.9302 35.6691Z" fill="#0666EB"/>
<path fill-rule="evenodd" clip-rule="evenodd" d="M24.9588 31.1254L34.265 31.0729L34.2912 35.7355L29.6379 35.7616C27.0682 35.776 24.9734 33.7003 24.9588 31.1254L24.9588 31.1254Z" fill="#0666EB"/>
<path fill-rule="evenodd" clip-rule="evenodd" d="M44.041 40.9685L34.7348 41.021L34.7086 36.3585L39.3619 36.3324C41.9316 36.3179 44.0264 38.3936 44.041 40.9686L44.041 40.9685Z" fill="#0666EB"/>
<defs>
<clipPath id="clip0_1149_2724">
<rect width="499" height="289" fill="white"/>
</clipPath>
</defs>
</svg>
