<svg width="40" height="40" viewBox="0 0 40 40" fill="none" xmlns="http://www.w3.org/2000/svg">
<g clip-path="url(#clip0_782_144)">
<circle cx="20" cy="20" r="20" fill="#7997A6"/>
<path d="M28.2051 19.4726H30.3104C30.3104 14.0726 26.2335 10 20.8262 10V12.1053C25.102 12.1053 28.2051 15.2032 28.2051 19.4726Z" fill="#1A3542"/>
<path d="M20.8372 16.3159C23.0508 16.3159 23.9951 17.2601 23.9951 19.4738H26.1003C26.1003 16.0791 24.2319 14.2106 20.8372 14.2106V16.3159ZM24.4393 22.0454C24.237 21.8615 23.9712 21.7635 23.698 21.7719C23.4248 21.7804 23.1656 21.8947 22.9751 22.0906L20.4561 24.6812C19.8498 24.5654 18.6308 24.1854 17.3761 22.9338C16.1214 21.678 15.7414 20.4559 15.6287 19.8538L18.2172 17.3338C18.4134 17.1434 18.5278 16.8841 18.5363 16.6109C18.5447 16.3376 18.4465 16.0717 18.2624 15.8696L14.373 11.5927C14.1888 11.39 13.9328 11.267 13.6594 11.2499C13.386 11.2328 13.1167 11.3229 12.9087 11.5012L10.6245 13.4601C10.4425 13.6428 10.3339 13.8858 10.3193 14.1433C10.3035 14.4064 10.0024 20.6401 14.8361 25.4759C19.053 29.6917 24.3351 30.0001 25.7898 30.0001C26.0024 30.0001 26.133 29.9938 26.1677 29.9917C26.4251 29.9773 26.668 29.8682 26.8498 29.6854L28.8077 27.4001C28.9861 27.1922 29.0764 26.923 29.0595 26.6496C29.0426 26.3762 28.9198 26.1202 28.7172 25.9359L24.4393 22.0454Z" fill="#1A3542"/>
</g>
<defs>
<clipPath id="clip0_782_144">
<rect width="40" height="40" fill="white"/>
</clipPath>
</defs>
</svg>
