<svg width="40" height="40" viewBox="0 0 40 40" fill="none" xmlns="http://www.w3.org/2000/svg">
<g clip-path="url(#clip0_782_138)">
<path d="M1.00246 19.7606C1.00153 23.1213 1.87967 26.4029 3.54944 29.2953L0.842773 39.1778L10.9563 36.526C13.7535 38.0488 16.8876 38.8467 20.0725 38.8469H20.0809C30.5949 38.8469 39.1535 30.2914 39.158 19.7756C39.16 14.68 37.1773 9.88832 33.5752 6.28336C29.9736 2.67871 25.1837 0.692511 20.0801 0.690186C9.56495 0.690186 1.00696 9.24522 1.00262 19.7606" fill="url(#paint0_linear_782_138)"/>
<path d="M0.321165 19.7544C0.32008 23.2361 1.22969 26.635 2.95899 29.631L0.155273 39.8678L10.6314 37.1209C13.5179 38.6947 16.7678 39.5245 20.0748 39.5257H20.0833C30.9745 39.5257 39.8405 30.6625 39.8452 19.7702C39.8471 14.4915 37.7931 9.5276 34.0622 5.79349C30.3309 2.05984 25.3697 0.00217054 20.0833 0C9.19031 0 0.325506 8.86202 0.321165 19.7544ZM6.55992 29.115L6.16876 28.4941C4.52442 25.8795 3.65651 22.8581 3.65775 19.7557C3.66132 10.7022 11.0294 3.33643 20.0895 3.33643C24.4771 3.33829 28.6005 5.04868 31.7019 8.15194C34.8032 11.2555 36.5097 15.3811 36.5086 19.769C36.5046 28.8225 29.1364 36.1891 20.0833 36.1891H20.0768C17.1291 36.1876 14.2381 35.396 11.7168 33.9L11.1168 33.5442L4.90008 35.1741L6.55992 29.1149V29.115Z" fill="url(#paint1_linear_782_138)"/>
<path d="M15.1443 11.4958C14.7744 10.6736 14.3851 10.657 14.0333 10.6426C13.7452 10.6302 13.4159 10.6311 13.087 10.6311C12.7577 10.6311 12.2226 10.755 11.7704 11.2488C11.3177 11.7431 10.042 12.9375 10.042 15.3668C10.042 17.7962 11.8114 20.144 12.0581 20.4738C12.3051 20.8029 15.4741 25.9477 20.493 27.9269C24.6642 29.5717 25.513 29.2446 26.4183 29.1621C27.3237 29.08 29.3398 27.968 29.7511 26.815C30.1628 25.6621 30.1628 24.6739 30.0394 24.4674C29.9159 24.2617 29.5866 24.1381 29.0928 23.8913C28.5989 23.6443 26.1713 22.4497 25.7187 22.2849C25.266 22.1203 24.9369 22.0381 24.6076 22.5325C24.2783 23.0262 23.3327 24.1381 23.0445 24.4674C22.7566 24.7975 22.4683 24.8386 21.9747 24.5916C21.4806 24.3438 19.8904 23.8231 18.0037 22.141C16.5358 20.8322 15.5448 19.2159 15.2567 18.7215C14.9687 18.2279 15.2259 17.9603 15.4735 17.7142C15.6953 17.493 15.9674 17.1376 16.2146 16.8494C16.4608 16.561 16.5429 16.3553 16.7076 16.026C16.8724 15.6964 16.7899 15.408 16.6666 15.161C16.5429 14.9141 15.5834 12.4721 15.1443 11.4958Z" fill="white"/>
</g>
<defs>
<linearGradient id="paint0_linear_782_138" x1="1916.6" y1="3849.45" x2="1916.6" y2="0.690186" gradientUnits="userSpaceOnUse">
<stop stop-color="#1FAF38"/>
<stop offset="1" stop-color="#60D669"/>
</linearGradient>
<linearGradient id="paint1_linear_782_138" x1="1984.65" y1="3986.78" x2="1984.65" y2="0" gradientUnits="userSpaceOnUse">
<stop stop-color="#F9F9F9"/>
<stop offset="1" stop-color="white"/>
</linearGradient>
<clipPath id="clip0_782_138">
<rect width="39.6899" height="40" fill="white" transform="translate(0.155273)"/>
</clipPath>
</defs>
</svg>
